/* XPM */
static char * Logo_16_xpm[] = {
/* width height num_colors chars_per_pixel */
"29 29 4 1",
/* colors */
" 	c grey50",
".	c #cfffff",
"X	c black",
"o	c #659a9a",
/* pixels */
"                             ",
"                             ",
"      ..   ..                ",
"      .......                ",
"     .......                 ",
"   ..........                ",
"    ....  .....              ",
"    ...    .....             ",
"    ....  ....               ",
"   ...........               ",
"     ..........  .           ",
"     .......    ...          ",
"     ..  ... .........       ",
"          .  .........       ",
"             .........       ",
"            ..... .....      ",
"           .....   .....     ",
"            ..... .....      ",
"  XXX      XXooooooo.        ",
"   XXX    XXXoo....ooo       ",
"    XX   XXX oX.....oo       ",
"    XXX XXX  XX ..  XX       ",
"     XXXXX   XX     XX       ",
"      XXXX   XX    XXX X  X  ",
"      XXX    XXXXXXX    XX   ",
"                        XX   ",
"                       X  X  ",
"                             ",
"                             "};
