/* XPM */
static char * SaveProject_xpm[] = {
"30 30 5 1",
" 	c grey50",
".	c white",
"X	c black",
"o	c red3",
"O	c grey85",
"                              ",
"  .................... XX     ",
"  ...........oooo.....XXXX    ",
"  ...XXXXXXX.oooo.XX..XOOXX   ",
"   ..........oooo......OOOX   ",
"   ...XXX.oooooooooo...OOOXX  ",
"    .......oooooooo.....OOOXX ",
"    X..XXXX.oooooo.XXX..OOOXX ",
"    XX.......oooo........OOXX ",
"    XXO.XXXXX.oo..XXXXX...OXX ",
"    XXO...................OXX ",
"    XXO..XXXXXXXXXXX...XX.OXX ",
" XXXXXXXXXXXXXXXXXXXXXX...OXX ",
"XXXXXXXXXXXXXXXXXXXXXXXX..OXX ",
"XXOOOOOOOOOOOOOOOOOOOOXX..OXX ",
" XXOOOOOOOOOOOOOOOOOOOOXX.OXX ",
" XXOOOOOOOOOOOXXXXXXOOOXX.OXX ",
" XXOOOOOOOOOOOOOOOOOOOOXX.OXX ",
" XXOOOOOOOOOOOOOOOOOOOOXXOOXX ",
"  XXOOOOOOOOOOOOOOOOOOOOXXOXX ",
"  XXOOOOOOOOOOOOOOOOOOOOXXOXX ",
"  XXOOOOOOOOOOOOOOOOOOOOXXOXX ",
"   XXOOOOOOOOOOOOOOOOOOOOXXXX ",
"   XXOOOOOOOOOOOOOOOOOOOOXXXX ",
"   XXOOOOOOOOOOOOOOOOOOOOXXXX ",
"   XXOOOOOOOOOOOOOOOOOOOOXXXX ",
"    XXOOOOOOOOOOOOOOOOOOOOXXX ",
"    XXXXXXXXXXXXXXXXXXXXXXXXX ",
"     XXXXXXXXXXXXXXXXXXXXXXX  ",
"                              "};
