/* XPM */
static char * Apply_xpm[] = {
/* width height ncolors cpp [x_hot y_hot] */
"32 32 3 1 -1 -1",
/* colors */
" 	s iconGray5	m black	c #737373737373",
".	s iconColor7	m white	c cyan",
"X	s iconGray7	m black	c #424242424242",
/* pixels */
"                                ",
"                                ",
"                                ",
"                                ",
"                                ",
"                ...             ",
"               ....             ",
"              .....             ",
"             .....              ",
"            .....X              ",
"           .....XXX             ",
"          .....XXXXX            ",
"           ...  XXXXX           ",
"            .    XXXXX          ",
"                  XXXXX         ",
"                   XXXXX        ",
"        ...         XXXXX       ",
"         .           XXXXX      ",
"         .            XXXXX     ",
"         .             XXXXX    ",
"         .              XXX     ",
"         .               X      ",
"         .                      ",
"         .                      ",
"  XXXXXXXXXXXXXXXXXXXX          ",
"  XXXXXXXXXXXXXXXXXXXX          ",
"  XXXXXXXXXXXXXXXXXXXX          ",
"                                ",
"                                ",
"                                ",
"                                ",
"                                "};
