/* XPM */
static char * AttachNone_xpm[] = {
/* width height ncolors cpp [x_hot y_hot] */
"32 32 3 1 0 0",
/* colors */
" 	s iconColor7	m white	c cyan",
".	s iconColor1	m black	c black",
"X	s iconColor5	m black	c blue",
/* pixels */
"                                ",
" .............................. ",
" .                            . ",
" .                            . ",
" .                            . ",
" .          .........         . ",
" .        ....XXXXX....       . ",
" .       ..XXXXXXXXXXX..      . ",
" .      ..XXXXXXXXXXXX...     . ",
" .     ..XXXXXXXXXXXX.....    . ",
" .     .XXXXXXXXXXXX...XX.    . ",
" .    ..XXXXXXXXXXX...XXX..   . ",
" .    ..XXXXXXXXXX...XXXX..   . ",
" .    .XXXXXXXXXX...XXXXXX.   . ",
" .    .XXXXXXXXX...XXXXXXX.   . ",
" .    .XXXXXXXX...XXXXXXXX.   . ",
" .    .XXXXXXX...XXXXXXXXX.   . ",
" .    .XXXXXX...XXXXXXXXXX.   . ",
" .    ..XXXX...XXXXXXXXXX..   . ",
" .    ..XXX...XXXXXXXXXXX..   . ",
" .     .XX...XXXXXXXXXXXX.    . ",
" .     .....XXXXXXXXXXXX..    . ",
" .      ...XXXXXXXXXXXX..     . ",
" .       ..XXXXXXXXXXX..      . ",
" .        ....XXXXX....       . ",
" .          .........         . ",
" .                            . ",
" .                            . ",
" .                            . ",
" .                            . ",
" .............................. ",
"                                "};
