#define forbidden_width 16
#define forbidden_height 16
static char forbidden_bits[] = {
   0x00, 0x00, 0x00, 0x00, 0x80, 0x03, 0xe0, 0x0f, 0x30, 0x18, 0x18, 0x3c,
   0x08, 0x2e, 0x0c, 0x67, 0x8c, 0x63, 0xcc, 0x61, 0xe8, 0x20, 0x78, 0x30,
   0x30, 0x18, 0xe0, 0x0f, 0x80, 0x03, 0x00, 0x00};
