/* XPM */
static char * ApplicationShell_xpm[] = {
"32 32 5 1",
" 	s None	c None",
".	c black",
"X	c peachpuff",
"o	c blue",
"O	c steelblue",
"                                ",
" .............................. ",
" .XXXXXX.XXXXXXX.XXXXXX.XXXXXX. ",
" .XXXXXX.XXXXXXX.XXXXXX.X....X. ",
" .X....X.XXXXXXX.XX..XX.X.XX.X. ",
" .X....X.XXXXXXX.XX..XX.X.XX.X. ",
" .XXXXXX.XXXXXXX.XXXXXX.X....X. ",
" .XXXXXX.XXXXXXX.XXXXXX.XXXXXX. ",
" .............................. ",
" .oooooooooooooooooooooooooooo. ",
" .oooooooooooooooooooooooooooo. ",
" .oooooooooooooooooooooooooooo. ",
" .oooooooooooooooooooooooooooo. ",
" .oooooooooooooooooooooooooooo. ",
" .oooooooooooooooooooooooooooo. ",
" .oooooooooo................oo. ",
" .oooooooooo.XXX.XX.XXX.XXX.oo. ",
" .oooooooooo.X.X.XX.X.X.XXX.oo. ",
" .oooooooooo.XXX.XX.XXX.XXX.oo. ",
" .oooooooooo................oo. ",
" .oooooooooo.OOOOOOOOOOOOOO.oo. ",
" .oooooooooo.OOOOOOOOOOOOOO.oo. ",
" .oooooooooo.OOOOOOOOOOOOOO.oo. ",
" .oooooooooo.OOOOOOOOOOOOOO.oo. ",
" .oooooooooo.OOOOOOOOOOOOOO.oo. ",
" .oooooooooo.OOOOOOOOOOOOOO.oo. ",
" .oooooooooo................oo. ",
" .oooooooooooooooooooooooooooo. ",
" .oooooooooooooooooooooooooooo. ",
" .oooooooooooooooooooooooooooo. ",
" .............................. ",
"                                "};
