/* XPM */
static char * ArrowButton_xpm[] = {
"32 32 5 1",
" 	s None	c None",
".	c steelblue2",
"X	c steelblue3",
"o	c steelblue4",
"O	c black",
"                                ",
"   ...........................  ",
"   ...........................  ",
"   ..XXXXXXXXXXXXXXXXXXXXXXXoo  ",
"   ..XXXXXXXXXXXXXXXXXXXXXXXoo  ",
"   ..XXXXXXXXXXXXXOXXXXXXXXXoo  ",
"   ..XXXXXXXXXXXXXOOXXXXXXXXoo  ",
"   ..XXXXXXXXXXXXXOOOXXXXXXXoo  ",
"   ..XXXXXXXXXXXXXOOOOXXXXXXoo  ",
"   ..XOOOOOOOOOOOOOOOOOXXXXXoo  ",
"   ..XOOOOOOOOOOOOOOOOOOXXXXoo  ",
"   ..XOOOOOOOOOOOOOOOOOOOXXXoo  ",
"   ..XOOOOOOOOOOOOOOOOOOOOXXoo  ",
"   ..XOOOOOOOOOOOOOOOOOOOOOXoo  ",
"   ..XOOOOOOOOOOOOOOOOOOOOOXoo  ",
"   ..XOOOOOOOOOOOOOOOOOOOOXXoo  ",
"   ..XOOOOOOOOOOOOOOOOOOOXXXoo  ",
"   ..XOOOOOOOOOOOOOOOOOOXXXXoo  ",
"   ..XXXXXXXXXXXXXOOOOOXXXXXoo  ",
"   ..XXXXXXXXXXXXXOOOOXXXXXXoo  ",
"   ..XXXXXXXXXXXXXOOOXXXXXXXoo  ",
"   ..XXXXXXXXXXXXXOOXXXXXXXXoo  ",
"   ..XXXXXXXXXXXXXOXXXXXXXXXoo  ",
"   ..XXXXXXXXXXXXXXXXXXXXXXXoo  ",
"   ..XXXXXXXXXXXXXXXXXXXXXXXoo  ",
"   ooooooooooooooooooooooooooo  ",
"   ooooooooooooooooooooooooooo  ",
"                                ",
"                                ",
"                                ",
"                                ",
"                                "};
