/* XPM */
static char * BulletinBoard_xpm[] = {
"32 32 3 1",
" 	s None	c None",
".	c steelblue4",
"X	c steelblue2",
"                                ",
" .............................. ",
" .XXXXXXXXXXXXXXXXXXXXXXXXXXXX. ",
" .XXXXXXXXXXXXXXXXXXXXXXXXXXXX. ",
" .XX.........XXXXXXXXXXXXXXXXX. ",
" .XX.........XXXXXXXXXXXXXXXXX. ",
" .XX.........XXXXXXXXXXXXXXXXX. ",
" .XXXXXXXXXXXXXXXXXXXXXXXXXXXX. ",
" .XXXXXXXXXXXXXXXXXXXXXXXXXXXX. ",
" .XX........................XX. ",
" .XX.XXXXXXXXXXXXXXXXXXXXXX.XX. ",
" .XX.XXXXXXXXXXXXXXXXXXXXXX.XX. ",
" .XX.XXXXXXXXXXXXXXXXXXXXXX.XX. ",
" .XX.XXXXXXXXXXXXXXXXXXXXXX.XX. ",
" .XX.XXXXXXXXXXXXXXXXXXXXXX.XX. ",
" .XX.XXXXXXXXXXXXXXXXXXXXXX.XX. ",
" .XX.XXXXXXXXXXXXXXXXXXXXXX.XX. ",
" .XX.XXXXXXXXXXXXXXXXXXXXXX.XX. ",
" .XX.XXXXXXXXXXXXXXXXXXXXXX.XX. ",
" .XX.XXXXXXXXXXXXXXXXXXXXXX.XX. ",
" .XX.XXXXXXXXXXXXXXXXXXXXXX.XX. ",
" .XX........................XX. ",
" .XXXXXXXXXXXXXXXXXXXXXXXXXXXX. ",
" .XXXXXXXXXXXXXXXXXXXXXXXXXXXX. ",
" .XX........XX........XXXXXXXX. ",
" .XX........XX........XXXXXXXX. ",
" .XX........XX........XXXXXXXX. ",
" .XX........XX........XXXXXXXX. ",
" .XXXXXXXXXXXXXXXXXXXXXXXXXXXX. ",
" .XXXXXXXXXXXXXXXXXXXXXXXXXXXX. ",
" .............................. ",
"                                "};
