/* XPM */
static char * CascadeButton_xpm[] = {
"32 32 5 1",
" 	s None	c None",
".	c steelblue2",
"X	c steelblue3",
"o	c steelblue4",
"O	c black",
"                                ",
"                                ",
"                                ",
"                                ",
"                                ",
"                                ",
"                                ",
"                                ",
" .............................. ",
" .XXXXXXXXXXXXXXXXXXXXXXXXXXXXo ",
" .XXXXXXXXXXXXXXXXXXXXXXXXXXXXo ",
" .XXOOXXXXXXXXXXXXXXXXXXoXXXXXo ",
" .XOXXOXXXXXXXXXXXXXXXXXooXXXXo ",
" .XOXXXXXXXXXXXXXXXXXXXXoXoXXXo ",
" .XOXXXXXOOXXXOOXXXOOXXXoXXoXXo ",
" .XOXXXXOXXOXOXXXXOXXOXXoXXX.Xo ",
" .XOXXXXOXXOXXOOXXOXXXXXoXX.XXo ",
" .XOXXOXOXXOXXXXOXOXXOXXoX.XXXo ",
" .XXOOXXXOOXOXOOXXXOOXXXo.XXXXo ",
" .XXXXXXXXXXXXXXXXXXXXXXoXXXXXo ",
" .XXXXXXXXXXXXXXXXXXXXXXXXXXXXo ",
" oooooooooooooooooooooooooooooo ",
"                                ",
"                                ",
"                                ",
"                                ",
"                                ",
"                                ",
"                                ",
"                                ",
"                                ",
"                                "};
