/* XPM */
static char * ColorSelect_xpm[] = {
/* width height ncolors cpp [x_hot y_hot] */
"32 32 15 1 0 0",
/* colors */
" 	s background	m black	c #949494949494",
".	c #4D344D344D34",
"X	s iconColor2	m white	c white",
"o	s iconGray2	m white	c #bdbdbdbdbdbd",
"O	s iconGray3	m white	c #adadadadadad",
"+	s iconColor8	m black	c magenta",
"@	s iconColor6	m white	c yellow",
"#	s iconGray6	m black	c #636363636363",
"$	s topShadowColor	m white	c #bdbdbdbdbdbd",
"%	s iconGray8	m black	c #212121212121",
"&	s iconColor3	m black	c red",
"*	s iconGray5	m black	c #737373737373",
"=	s iconGray1	m white	c #dededededede",
"-	s iconColor5	m black	c blue",
";	s iconColor4	m white	c green",
/* pixels */
"                                ",
"                                ",
"                                ",
"                                ",
"                                ",
"                                ",
"                ......          ",
"             ...XXXXXX..        ",
"          ..XoOOOOOOOOOoX..     ",
"         .XXOOOOOOO++++OOXX     ",
"        XoOO@OO@OO+++++#OOO.    ",
"       .OOO@@@@OOO+++++#OOO.$   ",
"      .XOO@@@@O@OOO+++#OOOO%$   ",
"     .oOOO@@@@&OOOOOOOOOOO%$    ",
"    .XOO&OOO@@OOOOOOOOOOO%%     ",
"    XoO&&OOOOOOOO%%%*OO%$       ",
"    XO&&&&&&OOOO%   =OO$   ..   ",
"    XO&&&&&&OOOO%   =OO$ ..=o   ",
"    XO&&&&#OOOOO*===OOO===OO%   ",
"    XOOO&&OOO--OOOOOOOOOOOO%$   ",
"    .XOOOOOO-----OOOO-;;;OO$    ",
"    .XOOOOO------OOOO;--;OO$    ",
"     .*OOOOO-----OOOO-;;;O%     ",
"       $%%OOOO--OOOOOOOOO$$     ",
"        $$%%OOOOOOOOOOO%%$      ",
"           $$$%%%%%%%%$$        ",
"             $$$$$$$$$$         ",
"                                ",
"                                ",
"                                ",
"                                ",
"                                "};
