/* XPM */
static char * ComboBox_xpm[] = {
"32 32 5 1",
" 	s None	c None",
".	c steelblue2",
"X	c steelblue3",
"o	c steelblue4",
"O	c black",
"                                ",
" .............................. ",
" .XXXXXXXXXXXXXXXXXXXXXo.XXXXXo ",
" .XXOOXXOOXXOXXXOXOOXXXo.XXXXXo ",
" .XOXXXOXXOXOOXOOXOXOXXo.XOXOXo ",
" .XOXXXOXXOXOXOXOXOOXXXo.XOXOXo ",
" .XOXXXOXXOXOXXXOXOXOXXo.XXOXXo ",
" .XXOOXXOOXXOXXXOXOOXXXo.XXXXXo ",
" .XXXXXXXXXXXXXXXXXXXXXo.XXXXXo ",
" .ooooooooooooooooooooooooooooo ",
" ......................o        ",
" .XXXXXXXXXXXXXXXXXX.oXo        ",
" .XOOXXXOOXXOXXOXXXX.ooo        ",
" .XOXOXOXXOXXOOXXXXX...o        ",
" .XOOXXOXXOXXOOXXXXX.ooo        ",
" .XOXOXOXXOXXOOXXXXX.ooo        ",
" .XOOXXXOOXXOXXOXXXX.ooo        ",
" .XXXXXXXXXXXXXXXXXX.ooo        ",
" .XXXXXXXXXXXXXXXXXX.ooo        ",
" .XOXXXOXOXXXXOXXOXX.ooo        ",
" .XOOXOOXOXXXXXOOXXX.ooo        ",
" .XOXOXOXOXXXXXOOXXX.XXo        ",
" .XOXXXOXOXXXXXOOXXX.XXo        ",
" .XOXXXOXOOOOXOXXOXX.XXo        ",
" .XXXXXXXXXXXXXXXXXX.XXo        ",
" .XXXXXXXXXXXXXXXXXX.XXo        ",
" .XOXXOXOXOOOXOXXXOX.XXo        ",
" .XOXXOXOXOXXXOXOXOX.XXo        ",
" .XOXXOXOXOOXXOXOXOX.ooo        ",
" .XXXXXXXXXXXXXXXXXX.oXo        ",
" .oooooooooooooooooooooo        ",
"                                "};
