/* XPM */
static char * CommandDialog_xpm[] = {
"32 32 6 1",
" 	s None	c None",
".	c black",
"X	c peachpuff",
"o	c steelblue2",
"O	c steelblue3",
"+	c steelblue4",
"                                ",
" .............................. ",
" .XXX.XXXXXXXXXXXXXXXXXXXXXXXX. ",
" .X.X.XXXXXXXXXXXXXXXXXXXXXXXX. ",
" .XXX.XXXXXXXXXXXXXXXXXXXXXXXX. ",
" .............................. ",
" .oooooooooooooooooooooooooooo. ",
" .oOOOOOOOOOOOOOOOOOOOOOOOOOO+. ",
" .oOOOOOOOOOOOOOOOOOOOOOOOOOO+. ",
" .oOOOOOOOOOOOOOOOOOOOOOOOOOO+. ",
" .oOOOOOOOOOOOOOOOOOOOOOOOOOO+. ",
" .oOO++++++++++++++++++++++OO+. ",
" .oOO+OOOOOOOOOOOOOOOOOOOOoOO+. ",
" .oOO+OOOOOOOOOOOOOOOOOOOOoOO+. ",
" .oOO+OOOOOOOOOOOOOOOOOOOOoOO+. ",
" .oOO+OOOOOOOOOOOOOOOOOOOOoOO+. ",
" .oOO+OOOOOOOOOOOOOOOOOOOOoOO+. ",
" .oOO+OOOOOOOOOOOOOOOOOOOOoOO+. ",
" .oOO+OOOOOOOOOOOOOOOOOOOOoOO+. ",
" .oOO+OOOOOOOOOOOOOOOOOOOOoOO+. ",
" .oOO+oooooooooooooooooooooOO+. ",
" .oOOOOOOOOOOOOOOOOOOOOOOOOOO+. ",
" .oOOOOOOOOOOOOOOOOOOOOOOOOOO+. ",
" .oOO++++++++++++++++++++++OO+. ",
" .oOO+OOOOOOOOOOOOOOOOOOOOoOO+. ",
" .oOO+OOOOOOOOOOOOOOOOOOOOoOO+. ",
" .oOO+oooooooooooooooooooooOO+. ",
" .oOOOOOOOOOOOOOOOOOOOOOOOOOO+. ",
" .oOOOOOOOOOOOOOOOOOOOOOOOOOO+. ",
" .o+++++++++++++++++++++++++++. ",
" .............................. ",
"                                "};
