/* XPM */
static char * Command_xpm[] = {
"32 32 4 1",
" 	s None	c None",
".	c steelblue2",
"X	c steelblue3",
"o	c steelblue4",
"                                ",
" .............................. ",
" .............................. ",
" ..XXXXXXXXXXXXXXXXXXXXXXXXXXoo ",
" ..XXXXXXXXXXXXXXXXXXXXXXXXXXoo ",
" ..XXooooooooooooooooooooooXXoo ",
" ..XXoXXXXXXXXXXXXXXXXXXXX.XXoo ",
" ..XXoXXXXXXXXXXXXXXXXXXXX.XXoo ",
" ..XXoXXXXXXXXXXXXXXXXXXXX.XXoo ",
" ..XXoXXXXXXXXXXXXXXXXXXXX.XXoo ",
" ..XXoXXXXXXXXXXXXXXXXXXXX.XXoo ",
" ..XXoXXXXXXXXXXXXXXXXXXXX.XXoo ",
" ..XXoXXXXXXXXXXXXXXXXXXXX.XXoo ",
" ..XXoXXXXXXXXXXXXXXXXXXXX.XXoo ",
" ..XXoXXXXXXXXXXXXXXXXXXXX.XXoo ",
" ..XXoXXXXXXXXXXXXXXXXXXXX.XXoo ",
" ..XXoXXXXXXXXXXXXXXXXXXXX.XXoo ",
" ..XXoXXXXXXXXXXXXXXXXXXXX.XXoo ",
" ..XXoXXXXXXXXXXXXXXXXXXXX.XXoo ",
" ..XXoXXXXXXXXXXXXXXXXXXXX.XXoo ",
" ..XXo.....................XXoo ",
" ..XXXXXXXXXXXXXXXXXXXXXXXXXXoo ",
" ..XXXXXXXXXXXXXXXXXXXXXXXXXXoo ",
" ..XXooooooooooooooooooooooXXoo ",
" ..XXoXXXXXXXXXXXXXXXXXXXX.XXoo ",
" ..XXoXXXXXXXXXXXXXXXXXXXX.XXoo ",
" ..XXo.....................XXoo ",
" ..XXXXXXXXXXXXXXXXXXXXXXXXXXoo ",
" ..XXXXXXXXXXXXXXXXXXXXXXXXXXoo ",
" ..oooooooooooooooooooooooooooo ",
" ..oooooooooooooooooooooooooooo ",
"                                "};
