/* XPM */
static char * Container_xpm[] = {
"32 32 5 1",
" 	s None	c None",
".	c steelblue2",
"X	c steelblue3",
"o	c steelblue4",
"O	c black",
"                                ",
" .............................. ",
" .XXXXXXXXXXXXXXXXXXXXXXXXXXXXo ",
" .X.....XXXXXXXXXXXXXXXXXXXXXXo ",
" .X.XXXoXXXXXXXXXXXXXXXXXXXXXXo ",
" .X.OOOoXXXXXXXXXXXXXXXXXXXXXXo ",
" .X.XOXoXXXXXXXXXXXXXXXXXXXXXXo ",
" .X.ooooXXXXXXXXXXXXXXXXXXXXXXo ",
" .XXXOXXXXXXXXXXXXXXXXXXXXXXXXo ",
" .XXXOXXXXXXXXXXXXXXXXXXXXXXXXo ",
" .XXXOXXXXXXXXXXXXXXXXXXXXXXXXo ",
" .XXXOXXXXXXX................Xo ",
" .XXXOXXXXXXX.XXXXXXXXXXXXXXoXo ",
" .XXXOOOOOOOO.XXXXXXXXXXXXXXoXo ",
" .XXXOXXXXXXX.XXXXXXXXXXXXXXoXo ",
" .XXXOXXXXXXX.oooooooooooooooXo ",
" .XXXOXXXXXXXXXXXXXXXXXXXXXXXXo ",
" .XXXOXXXXXXXXXXXXXXXXXXXXXXXXo ",
" .XXXOXXXXXXXXXXXXXXXXXXXXXXXXo ",
" .XXXOXXXXXXXXXXXXXXXXXXXXXXXXo ",
" .XXXOXXXXXXXXXXXXXXXXXXXXXXXXo ",
" .XXXOXXXXXXXXXXXXXXXXXXXXXXXXo ",
" .XXXOXXXXXXXXXXXXXXXXXXXXXXXXo ",
" .XXXOXXXXXXX................Xo ",
" .XXXOXXXXXXX.XOXo.XXXXXXXXXoXo ",
" .XXXOOOOOOOO.XOOo.XXXXXXXXXoXo ",
" .XXXXXXXXXXX.XOXo.XXXXXXXXXoXo ",
" .XXXXXXXXXXX.oooo.ooooooooooXo ",
" .XXXXXXXXXXXXXXXXXXXXXXXXXXXXo ",
" .XXXXXXXXXXXXXXXXXXXXXXXXXXXXo ",
" .ooooooooooooooooooooooooooooo ",
"                                "};
