/* XPM */
static char * CSText_xpm[] = {
"32 32 4 1",
" 	c steelblue4",
".	c black",
"X	c peachpuff3",
"o	c peachpuff4",
"                                ",
" .............................. ",
" .............................X ",
" ..ooooooooooooooooooooooooooXX ",
" ..oooo..oo..oo....oo...o.oo.XX ",
" ..ooo.ooo.oo.ooo.oo.ooooo..oXX ",
" ..oo.ooooo.oooo.ooo..oooo.ooXX ",
" ..oo.ooo.oo.ooo.oo.ooooo..ooXX ",
" ..ooo..oo..ooo.ooo...oo.oo.oXX ",
" ..ooooooooooooooooooooooooooXX ",
" ..o........................oXX ",
" ..ooooooooooooooooooooooooooXX ",
" ..ooooooo.o.ooooooooooooooooXX ",
" ..o.ooo.oo.oooooooooooooooooXX ",
" ..o.ooo.oo.oooooooooooooooooXX ",
" ..o.o.o.oo.oooooooooooooooooXX ",
" ..o.o.o.oo.oooooooooooooooooXX ",
" ..oo.o.ooo.oooooooooooooooooXX ",
" ..oo.o.ooo.oooooooooooooooooXX ",
" ..oo.o.ooo.oooooooooooooooooXX ",
" ..ooooooo.o.ooooooooooooooooXX ",
" ..ooooooooooooooooooooooooooXX ",
" ..ooooooooooooooooooooooooooXX ",
" ..ooooooooooooooooooooooooooXX ",
" ..ooooooooooooooooooooooooooXX ",
" ..ooooooooooooooooooooooooooXX ",
" ..ooooooooooooooooooooooooooXX ",
" ..ooooooooooooooooooooooooooXX ",
" ..XXXXXXXXXXXXXXXXXXXXXXXXXXXX ",
" .XXXXXXXXXXXXXXXXXXXXXXXXXXXXX ",
"                                ",
"                                "};
