/* XPM */
static char * DialogShell_xpm[] = {
"32 32 6 1",
" 	s None	c None",
".	c black",
"X	c peachpuff",
"o	c steelblue4",
"O	c steelblue3",
"+	c steelblue2",
"                                ",
" .............................. ",
" .XXX.XXXXXXXXXXXXXXXX.XXX.XXX. ",
" .XXX.XXXXXXXXXXXXXXXX.XXX.XXX. ",
" .XXX.XXXXXXXXXXXXXXXX.XXX.XXX. ",
" .............................. ",
" .oooooooooooooooooooooooooooo. ",
" .oooooooooooooooooooooooooooo. ",
" .oooooooooooooooooooooooooooo. ",
" .oooooooooooooooooooooooooooo. ",
" .oooooooooooooooooooooooooooo. ",
" .ooo......................ooo. ",
" .ooo.XXX.XXXXXXXXXXXXXXXX.ooo. ",
" .ooo.XXX.XXXXXXXXXXXXXXXX.ooo. ",
" .ooo.XXX.XXXXXXXXXXXXXXXX.ooo. ",
" .ooo......................ooo. ",
" .ooo.OOOOOOOOOOOOOOOOOOOO.ooo. ",
" .ooo.OOOOOOOOOOOOOOOOOOOO.ooo. ",
" .ooo.OOOOO+++++++++oOOOOO.ooo. ",
" .ooo.OOOOO+OOOOOOOOoOOOOO.ooo. ",
" .ooo.OOOOO+OO....OOoOOOOO.ooo. ",
" .ooo.OOOOO+OOOOOOOOoOOOOO.ooo. ",
" .ooo.OOOOO+oooooooooOOOOO.ooo. ",
" .ooo.OOOOOOOOOOOOOOOOOOOO.ooo. ",
" .ooo......................ooo. ",
" .oooooooooooooooooooooooooooo. ",
" .oooooooooooooooooooooooooooo. ",
" .oooooooooooooooooooooooooooo. ",
" .oooooooooooooooooooooooooooo. ",
" .oooooooooooooooooooooooooooo. ",
" .............................. ",
"                                "};
