/* XPM */
static char * DrawingArea_xpm[] = {
"32 32 5 1",
" 	s None	c None",
".	c steelblue2",
"X	c steelblue3",
"o	c steelblue4",
"O	c black",
"                                ",
" .............................. ",
" .............................. ",
" ..XXXXXXXXXXXXXXXXXXXXXXXXXXoo ",
" ..XXXXXXXXXXXOOOXXXXXXXXXXXXoo ",
" ..XXXXXXXXXOOXXXOOXXXXXXXXXXoo ",
" ..XXXXXXXOOXXXXXXXOOXXXXXXXXoo ",
" ..XXXXXXXOXXXXXXXXXOXXXXXXXXoo ",
" ..XXXXXXOXXXXXXXXXXXOXXXXXXXoo ",
" ..XXXXXXOXXXXXXXXXXXOXXXXXXXoo ",
" ..XXXXXOXXXXXXXXXXXXXOXXXXXXoo ",
" ..XXXXXOXXXXXXXXXXXXXOXXXXXXoo ",
" ..XXXXXOXXXXXXXXXXXXXOXXXXXXoo ",
" ..XXXXXXOXXXXXXXXXXXOXXXXXXXoo ",
" ..XXXXXXOXXXXXXXXXXXOXXXXXXXoo ",
" ..XXXXXXXOXXXXXXXXXOXXXXXXXXoo ",
" ..XXXXXXXOOXXXXXXXOOXXXXXXXXoo ",
" ..XXXXXXXXXOOXXXOOXXXXXXOXXXoo ",
" ..XXXXXXXXXXXOOOXXXXXXXOOXXXoo ",
" ..XXXXXXXXXXXXXXXXXXXXOXOXXXoo ",
" ..XXOOOOOOOOOOOXXXXXXOXXOXXXoo ",
" ..XXOXXXXXXXXXOXXXXXOXXXOXXXoo ",
" ..XXOXXXXXXXXXOXXXXOXXXXOXXXoo ",
" ..XXOXXXXXXXXXOXXXOXXXXXOXXXoo ",
" ..XXOOOOOOOOOOOXXOXXXXXXOXXXoo ",
" ..XXXXXXXXXXXXXXOXXXXXXXOXXXoo ",
" ..XXXXXXXXXXXXXOOOOOOOOOOXXXoo ",
" ..XXXXXXXXXXXXXXXXXXXXXXXXXXoo ",
" ..XXXXXXXXXXXXXXXXXXXXXXXXXXoo ",
" ..oooooooooooooooooooooooooooo ",
" ..oooooooooooooooooooooooooooo ",
"                                "};
