/* XPM */
static char * DtHelp_xpm[] = {
/* width height ncolors cpp [x_hot y_hot] */
"32 32 12 1 0 0",
/* colors */
" 	s none	m none	c none",
".	s iconGray3	m white	c #adadadadadad",
"X	s iconGray6	m black	c #636363636363",
"o	s iconGray8	m black	c #212121212121",
"O	s iconGray5	m black	c #737373737373",
"+	s iconGray4	m white	c #949494949494",
"@	s iconGray2	m white	c #bdbdbdbdbdbd",
"#	s iconColor8	m black	c magenta",
"$	s iconColor3	m black	c red",
"%	s iconColor5	m black	c blue",
"&	s iconGray7	m black	c #424242424242",
"*	s iconColor2	m white	c white",
/* pixels */
"                                ",
"                                ",
"                                ",
"                                ",
"                                ",
"        ....X          ....o    ",
"        .O+Xo++++Xo    +++Xo    ",
"    @@.o#+O$o+OOOXo%&Xo++O&o    ",
"    @.Oo+O+Xo+OOOXo&O%o+XOOo    ",
"    @+Oo+OO$o+OOOXo&&Xo+XOOo    ",
"    @.Oo+O+Xo+OOOXo&O%o++OOo    ",
"    @+Oo#+O$X*****o&&Xo+&OOo    ",
"    @.Oo+O+X*******%O%o+++Oo    ",
"    @.Oo#+O$**OOO**&&Xo+&OOo    ",
"    @+Oo+O+X**OOO**%O%oOOOOo    ",
"    @.Oo#+O$o+OO***&&XoOXOOo    ",
"    @+Oo+O+Xo+O***o%O%oO+OOo    ",
"    @+Oo#+O$o+***Xo&&XoOXOOo    ",
"    @+Oo+O+Xo+**OXo%O%oOOOOo    ",
"    @.Oo#+O$o+OOOXo&&XoO++Oo    ",
"    @.Oo+O+Xo+**OXo%O%oO+OOo    ",
"    @.Oo#+O$o+**OXo&&XoO+OOo    ",
"    @.Oo+O+Xo+XO&Xo%O%oO&OOo    ",
"    @.Oo#+O$o+O&&Xo&&XoO+OOo    ",
"    @.Oo+O+Xo+OOOXo%O%oO+OOo    ",
"    @.Oo#+O$o+OOOXo&&XoO+OOo    ",
"    .ooooooooooooooooooooooo    ",
"                                ",
"                                ",
"                                ",
"                                ",
"                                "};
