/* XPM */
static char * DtTerm_xpm[] = {
/* width height ncolors cpp [x_hot y_hot] */
"32 32 9 1 0 0",
/* colors */
" 	s none	m none	c none",
".	s iconGray1	m white	c #dededededede",
"X	s iconColor2	m white	c white",
"o	s iconGray8	m black	c #212121212121",
"O	s iconGray2	m white	c #bdbdbdbdbdbd",
"+	s iconGray6	m black	c #636363636363",
"@	s iconGray7	m black	c #424242424242",
"#	s iconGray4	m white	c #949494949494",
"$	s iconGray5	m black	c #737373737373",
/* pixels */
"                                ",
"                                ",
"                                ",
"       .................        ",
"      XXXXXXXXXXXXXXXXXXXo      ",
"     XOOOOOOOOOOOOOOOOOOOOo     ",
"     XO++++++++++++++++++Oo     ",
"     XO+ooooooooooooooooXOo     ",
"     XO+o@@@@@@@@@@@@@@oXOo     ",
"     XO+o@.@.@.@.@@@@@@oXOo     ",
"     XO+o@@@@@@@@@@@@@@oXOo     ",
"     XO+o@#.@.@#.@.@@@@oXOo     ",
"     XO+o@@@@@@@@@@@@@@oXOo     ",
"     XO+o@.#.@.@.#@@@@@oXOo     ",
"     XO+o@@@@@@@@@@@@@@oXOo     ",
"     XO+o@@@@@@@@@@@@@@oXOo     ",
"     XO+o@@@@@@@@@@@@@@oXOo     ",
"     XO+ooooooooooooooooXOo     ",
"     XO+XXXXXXXXXXXXXXXXXOo     ",
"     XOOOOOOOOOOOOOOOOOOOOo     ",
"      oooooooooooooooooooo      ",
"         oo++++++++++oo         ",
"         ooo$$$$$$$$ooo         ",
"    $$$$$$$$$$$$$$$$$$$$$$$$o   ",
"   XXX$X$X$X$X$X$X$X$XX$X$X$Xo  ",
"  XXX$X$X$X$X$X$X$X$X$XX$X$XXXo ",
" XXXXXXXXXXXXXXXXXXXXXXXXXXXXXXo",
" ##############################o",
" ooooooooooooooooooooooooooooooo",
"                                ",
"                                ",
"                                "};
