/* XPM */
static char * ErrorDialog_xpm[] = {
"32 32 7 1",
" 	s None	c None",
".	c black",
"X	c peachpuff",
"o	c steelblue2",
"O	c steelblue3",
"+	c red",
"@	c steelblue4",
"                                ",
"                                ",
"                                ",
"                                ",
"                                ",
"................................",
".XXX.XXXXXXXXXXXXXXXXXXXXXXXXXX.",
".X.X.XXXXXXXXXXXXXXXXXXXXXXXXXX.",
".XXX.XXXXXXXXXXXXXXXXXXXXXXXXXX.",
"................................",
".oooooooooooooooooooooooooooooo.",
".oOO+++O++OO++OOO++OO++OOOOOOO@.",
".oOO+OOO+O+O+O+O+OO+O+O+OOOOOO@.",
".oOO++OO++OO++OO+OO+O++OOOOOOO@.",
".oOO+OOO+O+O+O+O+OO+O+O+OOOOOO@.",
".oOO+++O+O+O+O+OO++OO+O+OOOOOO@.",
".oOOOOOOOOOOOOOOOOOOOOOOOOOOOO@.",
".o@@@@@@@@@@@@@@@@@@@@@@@@@@@@@.",
".oooooooooooooooooooooooooooooo.",
".oOOOOOOOOOOOOOOOOOOOOOOOOOOOO@.",
".oOoooooooOOOoooooooOOoooooooO@.",
".oOoOOOOO@OOOoOOOOO@OOoOOOOO@O@.",
".oOo@@@@@@OOOo@@@@@@OOo@@@@@@O@.",
".oOOOOOOOOOOOOOOOOOOOOOOOOOOOO@.",
".o@@@@@@@@@@@@@@@@@@@@@@@@@@@@@.",
"................................",
"                                ",
"                                ",
"                                ",
"                                ",
"                                ",
"                                "};
