/* XPM */
static char * Execute_xpm[] = {
"30 30 3 1",
" 	c grey50",
".	c white",
"X	c black",
"                              ",
"        .     XXX             ",
"       ...       X            ",
"       ...X       X           ",
" ...  .....  ...   X          ",
" ...............XX X X        ",
" ...............X XXX         ",
"  .............X   X          ",
"  .............X              ",
" ...............              ",
".......XXX........            ",
".......XXX.........           ",
".......XXX........X   .       ",
" ...............X    ...      ",
"  .............X..   ...X  .. ",
"  .............X.............X",
" ...............X...........X ",
" ...............X...........X ",
" ...X .....XX...X............X",
"       ...X    ......XXX......",
"       ...X   .......XXX......",
"        .X     ......XXX......",
"                 ............X",
"                 ...........X ",
"                 ...........X ",
"                .............X",
"                ..X  ...X  ..X",
"                     ...X     ",
"                      .X      ",
"                              "};
