/* XPM */
static char * FileSelectionBoxDialog_xpm[] = {
"32 32 6 1",
" 	s None	c None",
".	c black",
"X	c peachpuff",
"o	c steelblue2",
"O	c steelblue4",
"+	c steelblue3",
"                                ",
"  ...........................   ",
"  .XXX.XXXXXXXXXXXXXXXXXXXXX.   ",
"  .X.X.XXXXXXXXXXXXXXXXXXXXX.   ",
"  .XXX.XXXXXXXXXXXXXXXXXXXXX.   ",
"  ...........................   ",
"  .ooooooooooooooooooooooooO.   ",
"  .o+++++++++++++++++++++++O.   ",
"  .o+OOOOOOOOOOOOOOOOOOOOo+O.   ",
"  .o+O.X.X.XX.X.XX..X.XX.o+O.   ",
"  .o+O.XX.XX..X.XX.X.XXX.o+O.   ",
"  .o+Ooooooooooooooooooooo+O.   ",
"  .o+++++++++++++++++++++++O.   ",
"  .o+OOOOOOOOOo+OOOOOOOOOo+O.   ",
"  .o+O........o+O........o+O.   ",
"  .o+O.XXXXXX.o+O.XXXXXX.o+O.   ",
"  .o+O........o+O........o+O.   ",
"  .o+O.XXXXXX.o+O.XXXXXX.o+O.   ",
"  .o+O........o+O........o+O.   ",
"  .o+O.XXXXXX.o+O........o+O.   ",
"  .o+O........o+O........o+O.   ",
"  .o+O.XXXXXX.o+O........o+O.   ",
"  .o+O........o+O........o+O.   ",
"  .o+Oooooooooo+Oooooooooo+O.   ",
"  .o+++++++++++++++++++++++O.   ",
"  .o+OOOOOOOOOOOOOOOOOOOOo+O.   ",
"  .o+O.X.X..X.XX..X.XXX..o+O.   ",
"  .o+O.X.X.X..XX.X..XXX..o+O.   ",
"  .o+Ooooooooooooooooooooo+O.   ",
"  .o+++++++++++++++++++++++O.   ",
"  ...........................   ",
"                                "};
