/* XPM */
static char * FileSelectionBox_xpm[] = {
"32 32 6 1",
" 	s None	c None",
".	c steelblue2",
"X	c steelblue4",
"o	c steelblue3",
"O	c black",
"+	c peachpuff",
"                                ",
"    ........................X   ",
"    .oooooooooooooooooooooooX   ",
"    .oXXXXXXXXXXXXXXXXXXXX.oX   ",
"    .oXO+O+O++O+O++OO+O++O.oX   ",
"    .oXO++O++OO+O++O+O+++O.oX   ",
"    .oX....................oX   ",
"    .oooooooooooooooooooooooX   ",
"    .oXXXXXXXXX.oXXXXXXXXX.oX   ",
"    .oXOOOOOOOO.oXOOOOOOOO.oX   ",
"    .oXO++++++O.oXO++++++O.oX   ",
"    .oXOOOOOOOO.oXOOOOOOOO.oX   ",
"    .oXO++++++O.oXO++++++O.oX   ",
"    .oXOOOOOOOO.oXOOOOOOOO.oX   ",
"    .oXO++++++O.oXOOOOOOOO.oX   ",
"    .oXOOOOOOOO.oXOOOOOOOO.oX   ",
"    .oXO++++++O.oXOOOOOOOO.oX   ",
"    .oXOOOOOOOO.oXOOOOOOOO.oX   ",
"    .oX.........oX.........oX   ",
"    .oooooooooooooooooooooooX   ",
"    .oXXXXXXXXXXXXXXXXXXXX.oX   ",
"    .oXO+O+OO+O++OO+O+++OO.oX   ",
"    .oXO+O+O+OO++O+OO+++OO.oX   ",
"    .oX....................oX   ",
"    .oooooooooooooooooooooooX   ",
"    .o......Xo......Xo....XoX   ",
"    .o.oooooXo.oooooXo.oooXoX   ",
"    .o.oooooXo.oooooXo.oooXoX   ",
"    .o.XXXXXXo.XXXXXXo.XXXXoX   ",
"    .oooooooooooooooooooooooX   ",
"    XXXXXXXXXXXXXXXXXXXXXXXXX   ",
"                                "};
