/* XPM */
static char * FontChooser_xpm[] = {
/* width height ncolors cpp [x_hot y_hot] */
"32 32 2 1 -1 -1",
/* colors */
" 	s iconGray5	m black	c #737373737373",
".	s iconColor2	m white	c white",
/* pixels */
"                                ",
"                                ",
"             ..........         ",
"               ......           ",
"               ......           ",
"              ...  ...          ",
"              ...  ...          ",
"             ...   ...          ",
"             ...   ...          ",
"            ...     ...         ",
"            ...     ...         ",
"           ...      ...         ",
"           ...       ...        ",
"          ...        ...        ",
"          ...        ...        ",
"          ..         ...        ",
"         ...          ...       ",
"         ...          ...       ",
"        .................       ",
"        ..................      ",
"       ...             ...      ",
"       ...             ...      ",
"      ...               ...     ",
"      ...               ...     ",
"     ...                ...     ",
"     ...                ...     ",
"    ...                  ...    ",
"    ...                  ...    ",
"   ....                  ....   ",
" .......                ....... ",
"                                ",
"                                "};
