/* XPM */
static char * Form_xpm[] = {
"32 32 4 1",
" 	s None	c None",
".	c steelblue4",
"X	c steelblue2",
"o	c black",
"                                ",
" .............................. ",
" .XXXXXXXXXXoXXXXXXXXoXXXXXXXX. ",
" .XXXXXXXXXXoXXXXXXXXoXXXXXXXX. ",
" .XXXXXXXXXXoXXXXXXXXoXXXXXXXX. ",
" .XXXXXXXXXXoXXXXXXXXoXXXXXXXX. ",
" .XXX..............XXoXXXXXXXX. ",
" .XXX..............XXoXXXXXXXX. ",
" .XXX..............XXoXXXXXXXX. ",
" .ooo..............XXoXXXXXXXX. ",
" .XXX..............XXoXXXXXXXX. ",
" .XXX..............XXoXXXXXXXX. ",
" .XXX..............XXoXXXXXXXX. ",
" .XXX..............XXoXXXXXXXX. ",
" .XXXXXXXXXXXXXXXXXXXoXXXXXXXX. ",
" .XXXXXXXXXXXXXXXXXXXoXXXXXXXX. ",
" .XXXXXXXXXXXXXXXXXXXoXXXXXXXX. ",
" .XXXXXXXXXXXXXXXXXXXoXXXXXXXX. ",
" .XXXXXXXXXXXXXXXXXXXoXXXXXXXX. ",
" .XXXXXXXXXX...............XXX. ",
" .XXXXXXXXXX...............XXX. ",
" .XXXXXXXXXX...............XXX. ",
" .oooooooooo...............ooo. ",
" .XXXXXXXXXX...............XXX. ",
" .XXXXXXXXXX...............XXX. ",
" .XXXXXXXXXX...............XXX. ",
" .XXXXXXXXXXXXXXXXXoXXXXXXXXXX. ",
" .XXXXXXXXXXXXXXXXXoXXXXXXXXXX. ",
" .XXXXXXXXXXXXXXXXXoXXXXXXXXXX. ",
" .XXXXXXXXXXXXXXXXXoXXXXXXXXXX. ",
" .............................. ",
"                                "};
