/* XPM */
static char * Frame_xpm[] = {
"32 32 4 1",
" 	s None	c None",
".	c steelblue2",
"X	c steelblue3",
"o	c steelblue4",
"                                ",
" .............................. ",
" .............................. ",
" ..XXXXXXXXXXXXXXXXXXXXXXXXXXoo ",
" ..XooooooooooooooooooooooooXoo ",
" ..XooooooooooooooooooooooooXoo ",
" ..XooXXXXXXXXXXXXXXXXXXXX..Xoo ",
" ..XooX..................X..Xoo ",
" ..XooX..................X..Xoo ",
" ..XooX..XXXXXXXXXXXXXXooX..Xoo ",
" ..XooX..XXXXXXXXXXXXXXooX..Xoo ",
" ..XooX..XXXXXXXXXXXXXXooX..Xoo ",
" ..XooX..XXXXXXXXXXXXXXooX..Xoo ",
" ..XooX..XXXXXXXXXXXXXXooX..Xoo ",
" ..XooX..XXXXXXXXXXXXXXooX..Xoo ",
" ..XooX..XXXXXXXXXXXXXXooX..Xoo ",
" ..XooX..XXXXXXXXXXXXXXooX..Xoo ",
" ..XooX..XXXXXXXXXXXXXXooX..Xoo ",
" ..XooX..XXXXXXXXXXXXXXooX..Xoo ",
" ..XooX..XXXXXXXXXXXXXXooX..Xoo ",
" ..XooX..XXXXXXXXXXXXXXooX..Xoo ",
" ..XooX..XXXXXXXXXXXXXXooX..Xoo ",
" ..XooX..XXXXXXXXXXXXXXooX..Xoo ",
" ..XooX..ooooooooooooooooX..Xoo ",
" ..XooX..ooooooooooooooooX..Xoo ",
" ..XooXXXXXXXXXXXXXXXXXXXX..Xoo ",
" ..Xoo......................Xoo ",
" ..Xoo......................Xoo ",
" ..XXXXXXXXXXXXXXXXXXXXXXXXXXoo ",
" ..oooooooooooooooooooooooooooo ",
" ..oooooooooooooooooooooooooooo ",
"                                "};
