/* XPM */
static char * Generate_xpm[] = {
"30 30 4 1",
" 	c grey50",
".	c white",
"X	c black",
"o	c red",
"                              ",
"     .........X.              ",
"     ..........X...           ",
"     .....oo....XX..          ",
"     .....ooo.....X....       ",
"     ......ooo.....X.....     ",
"     .......ooo.....XX...XX   ",
"     ........ooo......X.XXX   ",
"     .........ooo......X.XX   ",
"     ..........ooo.......XX   ",
"     ...........ooo......XX   ",
"     ..........ooo.......XX   ",
"     .........ooo........XX   ",
"     ........ooo.........XX   ",
"     .......ooo..........XX   ",
"     ......ooo...........XX   ",
"     .......ooo..........XX   ",
"     ........ooo....o....XX   ",
"     .........ooo...oo...XX   ",
"     ..........ooo..oo...XX   ",
"     ...........ooo.oo...XX   ",
"     ............ooooo...XX   ",
"     .............oooo...XX   ",
"     .........ooooooooo..XX   ",
"     ..........oooooooo..XX   ",
"     ...............ooo..XX   ",
"     ....................XX   ",
"       XXXXXXXXXXXXXXXXXXXX   ",
"       XXXXXXXXXXXXXXXXXXXX   ",
"                              "};
