/* XPM */
static char * IntAxis_xpm[] = {
/* width height ncolors cpp [x_hot y_hot] */
"32 32 4 1 0 0",
/* colors */
" 	s none	m none	c none",
".	s iconColor5	m black	c blue",
"X	s iconColor7	m white	c cyan",
"o	s iconColor1	m black	c black",
/* pixels */
"                                ",
"                                ",
"                                ",
"                                ",
"                                ",
"                                ",
"                                ",
"                                ",
"                                ",
"                                ",
"                                ",
"  ............................  ",
"  .XXXXXXXXXXXXXXXXXXXXXXXXXX.  ",
"  .XXXXXXXXXXXXXXXXXXXXXXXXXX.  ",
"  .XXXXXXXXXXXXXXXXXXXXXXXXXX.  ",
"  .XoXXXXXXXXXXXoXXXXXXXXXXoX.  ",
"  .XoXXXXXoXXXXXoXXXXXoXXXXoX.  ",
"  .XoXXXXXoXXXXXoXXXXXoXXXXoX.  ",
"  .XooooooooooooooooooooooooX.  ",
"  .XXXXXXXXXXXXXXXXXXXXXXXXXX.  ",
"  .XXXXXXXXXXXXXXXXXXXXXXXXXX.  ",
"  ............................  ",
"                                ",
"                                ",
"                                ",
"                                ",
"                                ",
"                                ",
"                                ",
"                                ",
"                                ",
"                                "};
