/* XPM */
static char * Label_xpm[] = {
"32 32 3 1",
" 	s None	c None",
".	c black",
"X	c steelblue3",
"                                ",
"                                ",
"                                ",
"                                ",
"                                ",
"                                ",
"                                ",
"                                ",
"                                ",
"                                ",
"                                ",
"                                ",
"                                ",
"                                ",
"                                ",
" .............................. ",
" .XXXXXXXXXXXXXXXXXXXXXXXXXXXX. ",
" .XXXXXXXXXXXXXXXXXXXXXXXXXXXX. ",
" .XX.XXXXX..XX...XX....X.XXXXX. ",
" .XX.XXXX.XX.X.XX.X.XXXX.XXXXX. ",
" .XX.XXXX.XX.X...XX...XX.XXXXX. ",
" .XX.XXXX....X.XX.X.XXXX.XXXXX. ",
" .XX.XXXX.XX.X.XX.X.XXXX.XXXXX. ",
" .XX....X.XX.X...XX....X....XX. ",
" .XXXXXXXXXXXXXXXXXXXXXXXXXXXX. ",
" .XXXXXXXXXXXXXXXXXXXXXXXXXXXX. ",
" .............................. ",
"                                ",
"                                ",
"                                ",
"                                ",
"                                "};
