/* XPM */
static char * List_xpm[] = {
"32 32 4 1",
" 	c steelblue4",
".	c black",
"X	c steelblue2",
"o	c white",
"                                ",
" .............................. ",
" .                            X ",
" .                            X ",
" .  .   .      .    .         X ",
" .  .         ...  ..         X ",
" .  .   .  ..  .    .         X ",
" .  .   . .    .    .         X ",
" .  .   .   .  .    .         X ",
" .  ... . ..    .  ...        X ",
" .                            X ",
" .............................X ",
" ...o...o......o....oo........X ",
" ...o.........ooo..o..o.......X ",
" ...o...o..oo..o......o.......X ",
" ...o...o.o....o.....o........X ",
" ...o...o...o..o....o.........X ",
" ...ooo.o.oo....o..oooo.......X ",
" .............................X ",
" .                            X ",
" .  .   .      .    ..        X ",
" .  .         ...  .  .       X ",
" .  .   .  ..  .      .       X ",
" .  .   . .    .     ..       X ",
" .  .   .   .  .   .  .       X ",
" .  ... . ..    .   ..        X ",
" .                            X ",
" .                            X ",
" .                            X ",
" .                            X ",
" .XXXXXXXXXXXXXXXXXXXXXXXXXXXXX ",
"                                "};
