/* XPM */
static char * Logo_30_xpm[] = {
/* width height num_colors chars_per_pixel */
"30 30 9 1",
/* colors */
" 	c white",
".	c #659a9a",
"X	c #cfffff",
"o	c #aeaeae",
"O	c #797979",
"+	c #9acfcf",
"@	c #d7d7d7",
"#	c #f3f3f3",
"$	c black",
/* pixels */
"                              ",
"                              ",
"                              ",
"       .Xo  XO                ",
"       XXXXXXO                ",
"    OooXXXXXXo                ",
"    XXXXXXXXXXoO              ",
"     XXXXoOXXXXXO             ",
"     XXXO  OXXXO              ",
"    oXXXo  +XXX               ",
"   OXXXXXXXXXXXO              ",
"    @ XXXXXXXXXX Oo#          ",
"      +XXXXXX @O XXO  o       ",
"      +XoOXX+XXXXXXXXXX       ",
"       o   XOoXXXXXXXXX       ",
"             oXXXXXXXXX       ",
"            o+XXX@ oXXXoo     ",
"            XXXXX   XXXXX     ",
"             +XXXo oXXXOo     ",
"   $$$      $$.......X@       ",
"    $$$    $$$..XXXX...       ",
"     $$   $$$o.$XXXXX..       ",
"     $$$ $$$  $$OXXO $$       ",
"      $$$$$#  $$ O@  $$       ",
"       $$$$   $$    $$$ $  $  ",
"       $$$#   $$$$$$$    $$   ",
"                         $$   ",
"                        $  $  ",
"                              ",
"                              "};
