/* XPM */
static char * MainWindow_xpm[] = {
"32 32 5 1",
" 	s None	c None",
".	c steelblue2",
"X	c steelblue4",
"o	c steelblue3",
"O	c black",
"                                ",
" .............................. ",
" .............................X ",
" ............................XX ",
" ...ooooooooooooooooooooooooXXX ",
" ...oOOOOOooOOOOOoooooooOOOoXXX ",
" ...ooooooooooooooooooooooooXXX ",
" ..XXXXXXXXXXXXXXXXXXXXXXXXXXXX ",
" .XXXXXXXXXXXXXXXXXXXXXXXXXXXXX ",
" .ooooooooooooooooooooooooooooX ",
" .oXXXXXXXXXXXXXXXXXXXXXXoo.XoX ",
" .oXoooooooooooooooooooo.ooXXoX ",
" .oXoooooooooooooooooooo.oooooX ",
" .oXoooooooooooooooooooo.oXoo.X ",
" .oXoooooooooooooooooooo.oXoo.X ",
" .oXoooooooooooooooooooo.oXoo.X ",
" .oXoooooooooooooooooooo.oXoo.X ",
" .oXoooooooooooooooooooo.oXXX.X ",
" .oXoooooooooooooooooooo.oXXX.X ",
" .oXoooooooooooooooooooo.oXXX.X ",
" .oXoooooooooooooooooooo.oXXX.X ",
" .oXoooooooooooooooooooo.oXXX.X ",
" .oXoooooooooooooooooooo.oXXX.X ",
" .oXoooooooooooooooooooo.oXXX.X ",
" .oX.....................oXXX.X ",
" .ooooooooooooooooooooooooXXX.X ",
" .ooooXXXXXXXXXXXXXXXXXXXXooooX ",
" .o.XoooooooooooooooooXXXXo.XoX ",
" .oXXoooooooooooooooooXXXXo.XoX ",
" .oooo....................ooooX ",
" XXXXXXXXXXXXXXXXXXXXXXXXXXXXXX ",
"                                "};
