/* XPM */
static char * MenuEdit_xpm[] = {
"42 42 2 1",
" 	c white",
".	c black",
"                                          ",
"                                          ",
"  ....................................... ",
"  ...    ... ............................ ",
"  ... .... . ..  ........................ ",
"  ... ...... . .. ....................... ",
"  ...   .. . .   ........................ ",
"  ... .... . . .......................... ",
"  ... .... . ..  ........................ ",
"  ....................................... ",
"                                          ",
"   ................                       ",
"   ................                       ",
"   ................                       ",
"   ................                       ",
"   ................                       ",
"   ................                       ",
"   .              .                       ",
"   ................                       ",
"   ................                       ",
"   ................                       ",
"   ................                       ",
"   ................                       ",
"   ................                       ",
"   .              .                       ",
"   ................                       ",
"   ................                       ",
"   ................                       ",
"   ................                       ",
"   ................                       ",
"   ................                       ",
"   .              .                       ",
"   ................                       ",
"   ................                       ",
"   ................                       ",
"   ................                       ",
"   ................                       ",
"   ................                       ",
"   ................                       ",
"                                          ",
"                                          ",
"                                          "};
