/* XPM */
static char * MenuBar_xpm[] = {
"32 32 4 1",
" 	c steelblue4",
".	c steelblue2",
"X	c black",
"o	c red",
"                                ",
"                                ",
"  ...........................X  ",
"  .                          X  ",
"  . XXX XXX XX X     XXX XXX X  ",
"  .  X  X   X XX     X X X   X  ",
"  .  X  X   X XX     XXX X   X  ",
"  .  X  XXX X  X     X X XXX X  ",
"  .                          X  ",
"  XXXXXXXXXXXXXXXXXXXXXXXXXXXX  ",
"  ..............X.............  ",
"  ..            X......o......  ",
"  .. XXX X X X  X.....ooo.....  ",
"  ..  X  X X X  X.....ooo.....  ",
"  ..  X   X  X  X....ooooo....  ",
"  ..  X   X  X  X....ooooo....  ",
"  ..            X...ooooooo...  ",
"  ..            X...o.ooo.o...  ",
"  ..  X XXX X X X.....ooo.....  ",
"  ..  X X   X X X.....ooo.....  ",
"  ..  X X   XXX X.....ooo.....  ",
"  ..  X XXX X X X.....ooo.....  ",
"  ..            X.....ooo.....  ",
"  ..            X.....ooo.....  ",
"  ..  X X X X X X.....ooo.....  ",
"  ..  XXX X XXX X.....ooo.....  ",
"  ..  X X X X X X.............  ",
"  ..            X.............  ",
"  .XXXXXXXXXXXXXX.............  ",
"  ............................  ",
"                                ",
"                                "};
