/* XPM */
static char * MessageBox_xpm[] = {
"32 32 5 1",
" 	s None	c None",
".	c steelblue2",
"X	c steelblue3",
"o	c steelblue4",
"O	c black",
"                                ",
"                                ",
"                                ",
"                                ",
"                                ",
"                                ",
"                                ",
" .............................. ",
" .XXXXXXXXXXXXXXXXXXXXXXXXXXXXo ",
" .XXOXOXXOXXXXOXXXOXXXXOOOXXXXo ",
" .XXOXOXXOOOXXOOXXOXXXXOXXXXXXo ",
" .XXOXOXXOXXXXOOXXOOOXXOXXXXXXo ",
" .XXXXXXXXXXXXXXXXXXXXXXXXXXXXo ",
" .ooooooooooooooooooooooooooooo ",
" .............................o ",
" .XXXXXXXXXXXXXXXXXXXXXXXXXXXXo ",
" .X.......XXX.......XX.......Xo ",
" .X.XXXXXoXXX.XXXXXoXX.XXXXXoXo ",
" .X.XXXXXoXXX.XXXXXoXX.XXXXXoXo ",
" .X.ooooooXXX.ooooooXX.ooooooXo ",
" .XXXXXXXXXXXXXXXXXXXXXXXXXXXXo ",
" .ooooooooooooooooooooooooooooo ",
"                                ",
"                                ",
"                                ",
"                                ",
"                                ",
"                                ",
"                                ",
"                                ",
"                                ",
"                                "};
