/* XPM */
static char* MlxLogo = {
"72 40 9 2",
"__ c #010101",
"_` c #212121",
"_a c #414141",
"_b c #616161",
"_c c #808080",
"_d c #9f9f9f",
"_e c #bfbfbf",
"_f c #dfdfdf",
"_g c #ffffff",
"_c_c_c_c_c_c_c_c_c_c_c_c_c_c_c_c_c_c_c_c_c_c_c_c_c_c_c_c_c_c_c_c_c_c_c_c_c_c_c_c_c_c_c_c_c_c_c_c_c_c_c_c_c_c_c_c_c_c_c_c_c_c_c_c_c_c_c_c_c_c_c_c", 
"_c_c_c_c_c_c_c_c_c_c_c_c_c_c_c_c_c_c_c_c_c_c_c_c_c_c_c_c_c_c_c_c_c_c_c_c_c_c_c_c_c_c_c_c_c_c_c_c_c_c_c_c_c_c_c_c_c_c_c_c_c_c_c_c_c_c_c_c_c_c_c_c", 
"_c_c_c_c_c_c_c_c_c_c_c_c_c_c_c_c_c_c_c_c_c_c_c_c_c_c_c_c_c_c_c_c_c_c_c_c_c_c_c_c_c_c_c_c_c_c_c_c_c_c_c_c_c_c_c_c_c_c_c_c_c_c_c_c_c_c_c_c_c_c_c_c", 
"_c_c_c_c_a_a_`_`_`_b_b_c_c_c_c_c_c_c_a_a_`_`_`_`_`_`_`_`_`_`_`_`_`_`_`_b_c_c_c_c_c_c_c_c_a_`_`_`_`_`_`_b_b_c_a_a_`_`_`_`_`_`_b_c_c_c_c_c_c_c_c_c", 
"_c_c_c_c_`_`_____`_c_c_d_d_c_c_c_c_c_`_`_____`_`_`_`_`_`_`_`_`_`_`_`_`_c_d_d_c_c_c_c_c_c_`_____`_`_`_`_c_c_d_`_`_____`_`_`_`_c_d_d_c_c_c_c_c_c_c", 
"_c_c_c_c_b_b_a_a_c_f_f_f_f_c_c_c_c_a_____`_`_e_e_f_f_f_d_d_c_c_e_e_f_f_g_f_f_c_c_c_c_c_c_b_a_a_c_c_e_e_g_g_f_`_`_`_`_e_e_f_f_g_f_f_c_c_c_c_c_c_c", 
"_c_c_c_c_a_a_`_`_b_f_f_f_f_c_c_a_a_______c_c_g_g_g_g_f_c_c_b_b_f_f_g_g_f_e_e_c_c_c_c_c_c_c_a_a_b_b_f_f_g_g_c_____b_b_g_g_g_g_f_e_e_c_c_c_c_c_c_c", 
"_c_c_c_c_`_`_____a_d_d_e_e_a_a_______a_a_f_f_g_g_e_e_a_____b_b_g_g_f_f_c_c_c_c_c_c_c_c_c_c_b_b_a_a_d_d_c_c___a_a_e_e_g_g_e_e_c_c_c_c_c_c_c_c_c_c", 
"_c_c_c_c_`_`_`_`_e_d_d_c_c_`_`_____a_c_c_f_f_f_f_c_c_`_____d_d_g_g_e_e_c_c_c_c_c_c_c_c_c_c_c_c_a_a_b_b_b_b_b_e_e_g_g_e_e_c_c_c_c_c_c_c_c_c_c_c_c", 
"_c_c_c_c_`_`_`_`_f_d_d_b_b_b_b_c_c_d_c_c_f_f_f_f_c_c_`_`_`_f_f_f_f_c_c_c_a_a_`_`_b_b_c_c_c_a_a_____`_`_c_c_f_g_g_e_e_c_c_c_c_c_c_c_c_c_c_c_c_c_c", 
"_c_c_a_a_____b_b_g_c_c_`_`_e_e_e_e_c_d_d_g_g_f_f_a_a___b_b_g_g_f_f_c_c_c_`_`_____c_c_d_d_a_____a_a_d_d_d_d_d_e_e_c_c_c_c_c_c_c_c_c_c_c_c_c_c_c_c", 
"_c_c_`_`_____d_d_g_d_d_c_c_g_g_d_d_a_d_d_g_g_e_e_`_`___d_d_g_g_e_e_c_c_a_____b_b_g_g_d_d___a_a_e_e_g_g_e_e_c_c_c_c_c_c_c_c_c_c_c_c_c_c_c_c_c_c_c", 
"_c_c_____`_`_d_d_c_b_b_b_b_c_c_a_a_`_d_d_c_c_`_`_____`_d_d_c_c_`_`_`_`_______d_d_e_e_a_a___b_b_f_f_e_e_a_a_`_b_b_c_c_c_c_c_c_c_c_c_c_c_c_c_c_c_c", 
"_c_c_____a_a_c_c_b_c_c_a_a_____`_`_a_c_c_b_b_`_`_`_`_a_c_c_b_b_`_`_`_`_`_c_c_g_g_c_c_____a_c_c_e_e_d_d_`_`___a_a_c_c_e_e_d_d_c_c_c_c_c_c_c_c_c_c", 
"_c_c_c_c_f_f_f_f_f_g_g_e_e_c_c_f_f_f_f_f_f_f_f_f_f_f_f_f_f_f_f_f_f_f_f_f_g_g_g_g_d_d_c_c_f_f_f_g_g_f_f_b_b_c_f_f_f_f_g_g_f_f_c_c_c_c_c_c_c_c_c_c", 
"_c_c_d_d_f_f_f_f_f_f_f_e_e_d_d_f_f_f_f_f_f_f_f_f_f_f_f_f_f_f_f_f_f_f_f_f_f_f_e_e_c_c_d_d_f_f_f_f_f_e_e_c_c_d_f_f_f_f_f_f_e_e_c_c_c_c_c_c_c_c_c_c", 
"_c_c_c_c_c_c_c_c_c_c_c_c_c_c_c_c_c_c_c_c_c_c_c_c_c_c_c_c_c_c_c_c_c_c_c_c_c_c_c_c_c_c_c_c_c_c_c_c_c_c_c_c_c_c_c_c_c_c_c_c_c_c_c_c_c_c_c_c_c_c_c_c", 
"_c_c_c_c_c_c_c_c_c_c_c_c_c_c_c_c_c_c_c_c_c_c_c_c_c_c_c_c_c_c_c_c_c_c_c_c_c_c_c_c_c_c_c_c_c_c_c_c_c_c_c_c_c_c_c_c_c_c_c_c_c_c_c_c_c_c_c_c_c_c_c_c", 
"_c_c_c_c_c_c_c_c_c_c_c_c_c_c_c_c_c_c_c_c_c_c_c_c_c_c_c_c_c_c_c_c_c_c_c_c_c_c_c_c_c_c_c_c_c_c_c_c_c_c_c_c_c_c_c_c_c_c_c_c_c_c_c_c_c_c_c_c_c_c_c_c", 
"_c_c_c_c_c_c_c_c_c_c_c_c_c_c_c_c_c_c_c_c_c_c_c_c_c_c_c_c_c_c_c_c_c_c_c_c_c_c_c_c_c_c_c_c_c_c_c_c_c_c_c_c_c_c_c_c_c_c_c_c_c_c_c_c_c_c_c_c_c_c_c_c", 
"_c_c_c_c_c_c_c_c_c_c_c_c_c_c_c_c_c_c_c_c_c_c_c_c_c_c_c_c_c_c_c_c_c_c_c_c_c_c_c_c_c_c_c_c_c_c_c_c_c_c_c_c_c_c_c_c_c_c_c_c_c_c_c_c_c_c_c_c_c_c_c_c", 
"_c_c_c_c_c_c_c_c_c_c_c_c_c_c_c_c_c_c_c_c_c_c_c_c_c_c_c_c_c_c_c_c_c_c_c_c_c_c_c_c_c_c_c_c_c_c_c_c_c_c_c_c_c_c_c_c_c_c_c_c_c_c_c_c_c_c_c_c_c_c_c_c", 
"_c_c_c_c_c_c_c_c_c_c_c_c_c_c_c_c_c_c_c_c_c_c_a_a_`_`_`_`_`_`_`_b_b_c_c_a_`_`_`_`_`_`_`_`_b_c_c_c_c_a_a_`_`_`_`_`_b_b_a_a_`_`_b_c_c_c_c_c_c_c_c_c", 
"_c_c_c_c_c_c_c_c_c_c_c_c_c_c_c_c_c_c_c_c_c_c_`_`_____`_`_`_`_`_c_c_d_d_`_____`_`_`_`_`_`_c_b_b_`_`_________`_`_`_a_a_`_`_____c_d_d_c_c_c_c_c_c_c", 
"_c_c_c_c_c_c_c_c_c_c_c_c_c_c_c_c_c_c_c_c_c_c_b_b_a_a_c_e_e_f_f_g_g_f_f_b_c_c_d_d_c_c_e_e_e_b_b_____b_b_d_d_f_f_f_d_d_b_b_c_c_g_f_f_c_c_c_c_c_c_c", 
"_c_c_c_c_c_c_c_c_c_c_c_c_c_c_c_c_c_c_c_c_c_c_c_c_a_a_b_f_f_g_g_f_f_e_e_c_b_b_b_b_d_d_g_g_d_a_a_c_c_g_g_g_g_f_f_f_c_c_b_b_f_f_g_e_e_c_c_c_c_c_c_c", 
"_c_c_c_c_c_c_c_c_c_c_c_c_c_c_c_c_c_c_c_c_c_c_c_c_b_b_a_d_d_e_e_c_c_c_c_a_____a_a_e_e_e_e_a_b_b_g_g_g_g_e_e_c_c_c_b_b_c_c_g_g_f_c_c_c_c_c_c_c_c_c", 
"_c_c_c_c_c_c_c_c_c_c_c_c_c_c_c_c_c_c_c_c_c_c_c_c_c_c_a_b_b_e_e_d_d_c_c_`_____d_d_g_g_b_b___d_d_g_g_e_e_c_c_c_c_c_c_c_d_d_f_f_e_c_c_c_c_c_c_c_c_c", 
"_c_c_c_c_c_c_c_c_c_c_c_c_c_c_c_c_c_c_c_c_c_c_c_c_c_c_`_`_`_f_f_f_f_a_a___b_b_g_g_f_f_`_`_`_f_f_f_f_c_c_c_c_c_c_c_c_c_c_c_c_c_c_c_c_c_c_c_c_c_c_c", 
"_c_c_c_c_c_c_c_c_c_c_c_c_c_c_c_c_c_c_c_c_c_c_c_c_c_c_`_`_`_f_f_d_d_____a_e_e_g_g_e_e_`_`_`_f_f_f_f_c_c_c_c_c_c_c_c_c_c_c_c_c_c_c_c_c_c_c_c_c_c_c", 
"_c_c_c_c_c_c_c_c_c_c_c_c_c_c_c_c_c_c_c_c_c_c_c_c_c_c_b_a_a_d_d_b_b_____d_g_g_e_e_c_c_`_`_`_d_d_e_e_c_c_c_c_c_a_a_`_`_b_b_c_c_c_c_c_c_c_c_c_c_c_c", 
"_c_c_c_c_c_c_c_c_c_c_c_c_c_c_c_c_c_c_c_c_c_c_c_c_c_c_c_a_a_b_b_b_b_c_c_g_f_f_c_c_c_c_b_b_a_c_c_c_c_a_a_`_`_`_________c_c_d_d_c_c_c_c_c_c_c_c_c_c", 
"_c_c_c_c_c_c_c_c_c_c_c_c_c_c_c_c_c_c_c_c_c_c_c_c_c_c_c_`_`_`_`_e_e_g_g_g_e_e_c_c_c_c_c_c_c_c_c_c_c_b_b_`_`_`_b_b_d_d_g_g_f_f_c_c_c_c_c_c_c_c_c_c", 
"_c_c_c_c_c_c_c_c_c_c_c_c_c_c_c_c_c_c_c_c_c_c_c_c_c_c_c_b_b_c_c_g_g_g_g_e_c_c_c_c_c_c_c_c_c_c_c_e_e_f_f_f_f_f_g_g_g_g_f_f_e_e_c_c_c_c_c_c_c_c_c_c", 
"_c_c_c_c_c_c_c_c_c_c_c_c_c_c_c_c_c_c_c_c_c_c_c_c_c_c_c_c_c_d_d_f_f_e_e_c_c_c_c_c_c_c_c_c_c_c_c_d_d_f_f_f_f_f_f_f_e_e_c_c_c_c_c_c_c_c_c_c_c_c_c_c", 
"_c_c_c_c_c_c_c_c_c_c_c_c_c_c_c_c_c_c_c_c_c_c_c_c_c_c_c_c_c_c_c_c_c_c_c_c_c_c_c_c_c_c_c_c_c_c_c_c_c_c_c_c_c_c_c_c_c_c_c_c_c_c_c_c_c_c_c_c_c_c_c_c", 
"_c_c_c_c_c_c_c_c_c_c_c_c_c_c_c_c_c_c_c_c_c_c_c_c_c_c_c_c_c_c_c_c_c_c_c_c_c_c_c_c_c_c_c_c_c_c_c_c_c_c_c_c_c_c_c_c_c_c_c_c_c_c_c_c_c_c_c_c_c_c_c_c", 
"_c_c_c_c_c_c_c_c_c_c_c_c_c_c_c_c_c_c_c_c_c_c_c_c_c_c_c_c_c_c_c_c_c_c_c_c_c_c_c_c_c_c_c_c_c_c_c_c_c_c_c_c_c_c_c_c_c_c_c_c_c_c_c_c_c_c_c_c_c_c_c_c", 
"_c_c_c_c_c_c_c_c_c_c_c_c_c_c_c_c_c_c_c_c_c_c_c_c_c_c_c_c_c_c_c_c_c_c_c_c_c_c_c_c_c_c_c_c_c_c_c_c_c_c_c_c_c_c_c_c_c_c_c_c_c_c_c_c_c_c_c_c_c_c_c_c", 
"_c_c_c_c_c_c_c_c_c_c_c_c_c_c_c_c_c_c_c_c_c_c_c_c_c_c_c_c_c_c_c_c_c_c_c_c_c_c_c_c_c_c_c_c_c_c_c_c_c_c_c_c_c_c_c_c_c_c_c_c_c_c_c_c_c_c_c_c_c_c_c_c", 
} ;
