/* XPM */
static char * Notebook_xpm[] = {
"32 32 4 1",
" 	s None	c None",
".	c steelblue2",
"X	c steelblue3",
"o	c steelblue4",
"                                ",
" .............................. ",
" .X.XXXXXXXXXXXXXXXXXXXXoXXXXXo ",
" .oooXXXXXXXXXXXXXXXXXXXooooooo ",
" .X.XXXXXXXXXXXXXXXXXXXXooXXXoo ",
" .oooXXXXXXXXXXXXXXXXXXXooXXXoo ",
" .X.XXXXXXXXXXXXXXXXXXXXooooooo ",
" .oooXXXXXXXXXXXXXXXXXXXoXXXXXo ",
" .X.XXXXXXXXXXXXXXXXXXXXooooooo ",
" .oooXXXXXXXXXXXXXXXXXXXooXXXoo ",
" .X.XXXXXXXXXXXXXXXXXXXXooXXXoo ",
" .oooXXXXXXXXXXXXXXXXXXXooooooo ",
" .X.XXXXXXXXXXXXXXXXXXXXoXXXXXo ",
" .oooXXXXXXXXXXXXXXXXXXXooooooo ",
" .X.XXXXXXXXXXXXXXXXXXXXooXXXoo ",
" .oooXXXXXXXXXXXXXXXXXXXooXXXoo ",
" .X.XXXXXXXXXXXXXXXXXXXXooooooo ",
" .oooXXXXXXXXXXXXXXXXXXXoXXXXXo ",
" .X.XXXXXXXXXXXXXXXXXXXXoXXXXXo ",
" .oooXXXXXXXXXXXXXXXXXXXoXXXXXo ",
" .X.XXXXXXXXXXXXXXXXXXXXoXXXXXo ",
" .oooXXXXXXXXXXXXXXXXXXXoXXXXXo ",
" .X.XXXXXXXXXXXXXXXXXXXXoXXXXXo ",
" .oooXXXXXXXXXXXXXXXXXXXoXXXXXo ",
" .X.XXXXXXXXXXXXXXXXXXXXoXXXXXo ",
" .oooXXXXXXXXXXXXXXXXXXXoXXXXXo ",
" .X.XXXXXXXXXXXXXXXXXXXXoXXXXXo ",
" .oooXXXXXXXXXXXXXXXXXXXoXXXXXo ",
" .X.XXXXXXXXXXXXXXXXXXXXoXXXXXo ",
" .oooXXXXXXXXXXXXXXXXXXXoXXXXXo ",
" .ooooooooooooooooooooooooooooo ",
"                                "};
