/* XPM */
static char * OpenProject_xpm[] = {
"30 30 5 1",
" 	c grey50",
".	c red3",
"X	c black",
"o	c grey85",
"O	c white",
"              ..              ",
"             ....      XX     ",
"            ......    XXXX    ",
"           ........  XXooXX   ",
"          .......... XooooX   ",
"     XXXXXXXX....XXXXXooooXX  ",
"    OOOOOOOOO....OOOOOOooooXX ",
"    XOOOOOOOO....OOOOOOOoooXX ",
"    XXOOOOOOOOOOOOOOOOOOOooXX ",
"    XXoOXXXXXXXXOOXXXXXOOOoXX ",
"    XXoOOOOOOOOOOOOOOOOOOOoXX ",
"    XXoOOXXXXXXXXXXXOOOXXOoXX ",
" XXXXXXXXXXXXXXXXXXXXXXOOOoXX ",
"XXXXXXXXXXXXXXXXXXXXXXXXOOoXX ",
"XXooooooooooooooooooooXXOOoXX ",
" XooooooooooooooooooooXXXOOXX ",
" XXoooooooooooXXXXXXoooXXOOXX ",
" XXooooooooooooooooooooXXOOXX ",
" XXooooooooooooooooooooXXOOXX ",
"  XXoooooooooooXXXXXXoooXXOXX ",
"  XXooooooooooooooooooooXXOXX ",
"  XXoooooooooooooooooooooXOXX ",
"   XXooooooooooooooooooooXXXX ",
"   XXoooXXXXXXXXXXXXXXoooXXXX ",
"   XXoooooooooooooooooooooXXX ",
"   XXXooooooooooooooooooooXXX ",
"    XXoooooooooooooooooooooXX ",
"    XXXXXXXXXXXXXXXXXXXXXXXXX ",
"     XXXXXXXXXXXXXXXXXXXXXXX  ",
"                              "};
