/* XPM */
static char * OptionMenu_xpm[] = {
"32 32 3 1",
" 	c steelblue4",
".	c steelblue2",
"X	c black",
"                                ",
"                                ",
"  ............................  ",
"  ............................  ",
"  ...................X........  ",
"  ...                X........  ",
"  ... XXXXX X X  X   X........  ",
"  ...   X   X X X X  X........  ",
"  ...   X   XXX X X  X........  ",
"  ...   X   X X  X   X........  ",
"  ...                X......X.  ",
"  ...                X      X.  ",
"  ... X  X XXX XXXX  X      X.  ",
"  ... X  X  X  X     X....X X.  ",
"  ... XXXX  X  XX    X.   X X.  ",
"  ... X  X  X  X     XXXXXX X.  ",
"  ... X  X XXX XXXX  X      X.  ",
"  ...                X      X.  ",
"  ...                XXXXXXXX.  ",
"  ...                X........  ",
"  ... X  X XXX XXX X X........  ",
"  ... X  X X X X X X X........  ",
"  ... XXXX X X X X X X........  ",
"  ... X  X XXX XXX X X........  ",
"  ... X  X X X X X X X........  ",
"  ...                X........  ",
"  ...                X........  ",
"  ..XXXXXXXXXXXXXXXXXX........  ",
"  ............................  ",
"  ............................  ",
"                                ",
"                                "};
