/* XPM */
static char * PanedWindow_xpm[] = {
"32 32 3 1",
" 	c steelblue4",
".	c black",
"X	c steelblue2",
"                                ",
" .............................. ",
" .                            X ",
" .                            X ",
" .                            X ",
" .                            X ",
" .                            X ",
" .                            X ",
" .                            X ",
" .                            X ",
" .                            X ",
" .XXXXXXXXXXXXXXXXXXXXXXXXXXXXX ",
"                                ",
"                      XXXX.     ",
"                      X   .     ",
"   .................  X   .     ",
"                      X   .     ",
"                      .....     ",
"                                ",
" .............................. ",
" .                            X ",
" .                            X ",
" .                            X ",
" .                            X ",
" .                            X ",
" .                            X ",
" .                            X ",
" .                            X ",
" .                            X ",
" .XXXXXXXXXXXXXXXXXXXXXXXXXXXXX ",
"                                ",
"                                "};
