/* XPM */
static char * PopupMenu_xpm[] = {
"32 32 3 1",
" 	c steelblue4",
".	c steelblue2",
"X	c black",
"                                ",
"                                ",
"  ............................  ",
"  ............................  ",
"  ............................  ",
"  ............................  ",
"  ............................  ",
"  ............................  ",
"  ............................  ",
"  ........XXXXXX............X.  ",
"  .........XXXX.            X.  ",
"  .......XXXXXX. XXX X X X  X.  ",
"  .....XXXXXXX..  X  X X X  X.  ",
"  .....XX...X...  X   X  X  X.  ",
"  ..............  X   X  X  X.  ",
"  ..............            X.  ",
"  ..............            X.  ",
"  ..............  X XXX X X X.  ",
"  ..............  X X   X X X.  ",
"  ..............  X X   XXX X.  ",
"  ..............  X XXX X X X.  ",
"  ..............            X.  ",
"  ..............            X.  ",
"  ..............  X X X X X X.  ",
"  ..............  XXX X XXX X.  ",
"  ..............  X X X X X X.  ",
"  ..............            X.  ",
"  .............XXXXXXXXXXXXXX.  ",
"  ............................  ",
"  ............................  ",
"                                ",
"                                "};
