/* XPM */
static char * PromptDialog_xpm[] = {
"32 32 6 1",
" 	s None	c None",
".	c black",
"X	c peachpuff",
"o	c steelblue2",
"O	c steelblue3",
"+	c steelblue4",
"                                ",
"                                ",
"                                ",
"................................",
".XXX.XXXXXXXXXXXXXXXXXXXXXXXXXX.",
".X.X.XXXXXXXXXXXXXXXXXXXXXXXXXX.",
".XXX.XXXXXXXXXXXXXXXXXXXXXXXXXX.",
"................................",
".oooooooooooooooooooooooooooooo.",
".oOOOOOOOOOOOOOOOOOOOOOOOOOOOO+.",
".oOOO+++++++++++++++++++++++oO+.",
".o.OO+OOOOOOOOOOOOOOOOOOOOOOoO+.",
".oO.O+OOOOOOOOOOOOOOOOOOOOOOoO+.",
".oO.O+OOOOOOOOOOOOOOOOOOOOOOoO+.",
".o.OO+OOOOOOOOOOOOOOOOOOOOOOoO+.",
".oOOO+oooooooooooooooooooooooO+.",
".oOOOOOOOOOOOOOOOOOOOOOOOOOOOO+.",
".o+++++++++++++++++++++++++++++.",
".oooooooooooooooooooooooooooooo.",
".oOOOOOOOOOOOOOOOOOOOOOOOOOOOO+.",
".oOoooooooOOOoooooooOOoooooooO+.",
".oOoOOOOO+OOOoOOOOO+OOoOOOOO+O+.",
".oOo++++++OOOo++++++OOo++++++O+.",
".oOOOOOOOOOOOOOOOOOOOOOOOOOOOO+.",
".o+++++++++++++++++++++++++++++.",
"................................",
"                                ",
"                                ",
"                                ",
"                                ",
"                                ",
"                                "};
