/* XPM */
static char * PulldownMenu_xpm[] = {
"32 32 4 1",
" 	c steelblue4",
".	c steelblue2",
"X	c black",
"o	c red",
"                                ",
"                                ",
"  ...........................X  ",
"  .                          X  ",
"  . XXX XXX XX X     XXX XXX X  ",
"  .  X  X   X XX     X X X   X  ",
"  .  X  X   X XX     XXX X   X  ",
"  .  X  XXX X  X     X X XXX X  ",
"  .                          X  ",
"  XXXXXXXXXXXXXXXXXXXXXXXXXXXX  ",
"  ..............X.............  ",
"  ..            X.............  ",
"  .. XXX X X X  X.............  ",
"  ..  X  X X X  X.............  ",
"  ..  X   X  X  X.............  ",
"  ..  X   X  X  X......oo.....  ",
"  ..            X....oooo.....  ",
"  ..            X..oooooooooo.  ",
"  ..  X XXX X X X.ooooooooooo.  ",
"  ..  X X   X X X..oooooooooo.  ",
"  ..  X X   XXX X....oooo.....  ",
"  ..  X XXX X X X......oo.....  ",
"  ..            X.............  ",
"  ..            X.............  ",
"  ..  X X X X X X.............  ",
"  ..  XXX X XXX X.............  ",
"  ..  X X X X X X.............  ",
"  ..            X.............  ",
"  .XXXXXXXXXXXXXX.............  ",
"  ............................  ",
"                                ",
"                                "};
