/* XPM */
static char * PushButton_xpm[] = {
"32 32 5 1",
" 	s None	c None",
".	c black",
"X	c steelblue2",
"o	c steelblue4",
"O	c steelblue3",
"                                ",
"                                ",
"                                ",
"                                ",
"                                ",
"                                ",
"                                ",
"                                ",
"                                ",
"                                ",
" .............................. ",
" .XXXXXXXXXXXXXXXXXXXXXXXXXXXX. ",
" .XXXXXXXXXXXXXXXXXXXXXXXXXXXo. ",
" .XXOOOOOOOOOOOOOOOOOOOOOOOOoo. ",
" .XXOO...OO.OOO.OO..OO.OO.OOoo. ",
" .XXOO.OO.O.OOO.O.OO.O.OO.OOoo. ",
" .XXOO.OO.O.OOO.O.OOOO.OO.OOoo. ",
" .XXOO...OO.OOO.OO..OO....OOoo. ",
" .XXOO.OOOO.OOO.OOOO.O.OO.OOoo. ",
" .XXOO.OOOO.OOO.OOOO.O.OO.OOoo. ",
" .XXOO.OOOO.OO..O.OO.O.OO.OOoo. ",
" .XXOO.OOOOO..O.OO..OO.OO.OOoo. ",
" .XXOOOOOOOOOOOOOOOOOOOOOOOOoo. ",
" .XXoooooooooooooooooooooooooo. ",
" .Xooooooooooooooooooooooooooo. ",
" .............................. ",
"                                ",
"                                ",
"                                ",
"                                ",
"                                ",
"                                "};
