/* XPM */
static char * QuestionDialog_xpm[] = {
"32 32 6 1",
" 	s None	c None",
".	c black",
"X	c peachpuff",
"o	c steelblue2",
"O	c steelblue3",
"+	c steelblue4",
"                                ",
"                                ",
"                                ",
"             ......             ",
"            ..    ..            ",
"................................",
".XXX.XXXXXX..XXXXXX..XXXXXXXXXX.",
".X.X.XXXXXX..XXXXXX..XXXXXXXXXX.",
".XXX.XXXXXXXXXXXXXX..XXXXXXXXXX.",
"................................",
".oooooooooooooooooo..oooooooooo.",
".oOOOOOOOOOOOOOOOO..OOOOOOOOOO+.",
".oOOOOOOOOOOOOOOO..OOOOOOOOOOO+.",
".oOOOOOOOOOOOOOOO.OOOOOOOOOOOO+.",
".oOOOOOOOOOOOOOO..OOOOOOOOOOOO+.",
".oOOOOOOOOOOOOOOOOOOOOOOOOOOOO+.",
".oOOOOOOOOOOOOOOOOOOOOOOOOOOOO+.",
".o+++++++++++++++++++++++++++++.",
".oooooooooooooo...ooooooooooooo.",
".oOOOOOOOOOOOOO...OOOOOOOOOOOO+.",
".oOoooooooOOOoo...ooOOoooooooO+.",
".oOoOOOOO+OOOoOOOOO+OOoOOOOO+O+.",
".oOo++++++OOOo++++++OOo++++++O+.",
".oOOOOOOOOOOOOOOOOOOOOOOOOOOOO+.",
".o+++++++++++++++++++++++++++++.",
"................................",
"                                ",
"                                ",
"                                ",
"                                ",
"                                ",
"                                "};
