/* XPM */
static char * RadioBox_xpm[] = {
"32 32 5 1",
" 	s None	c None",
".	c steelblue2",
"X	c steelblue3",
"o	c steelblue4",
"O	c black",
"                                ",
" .............................. ",
" .XXXXXXXXXXXXXXXXXXXXXXXXXXXXo ",
" .XXXXoXXXXXXXOXXXOXXOXXXOXXOXo ",
" .XXXoXoXXXXXXOOXOOXXOXXXXOOXXo ",
" .XXoXXX.XXXXXOXOXOXXOXXXXOOXXo ",
" .XXXoX.XXXXXXOXXXOXXOXXXXOOXXo ",
" .XXXX.XXXXXXXOXXXOXXOOOXOXXOXo ",
" .XXXXXXXXXXXXXXXXXXXXXXXXXXXXo ",
" .XXXXXXXXXXXXXXXXXXXXXXXXXXXXo ",
" .XXXX.XXXXXXXOOXXXXOXXXOOXXXXo ",
" .XXX.XoXXXXXXOXOXXOXOXXOXOXXXo ",
" .XX.XXXoXXXXXOOXXXOXOXXOXOXXXo ",
" .XXXoXoXXXXXXOXOXXOOOXXOXOXXXo ",
" .XXXXoXXXXXXXOXOXXOXOXXOOXXXXo ",
" .XXXXXXXXXXXXXXXXXXXXXXXXXXXXo ",
" .XXXXXXXXXXXXXXXXXXXXXXXXXXXXo ",
" .XXXX.XXXXXXXOXXXOXXXXXXXXXXXo ",
" .XXX.XoXXXXXXOXXOXOXXXXXXXXXXo ",
" .XX.XXXoXXXXXOXXOXOXXXXXXXXXXo ",
" .XXXoXoXXXXXXOXXOXOXXXXXXXXXXo ",
" .XXXXoXXXXXXXOXXXOXXXXXXXXXXXo ",
" .XXXXXXXXXXXXXXXXXXXXXXXXXXXXo ",
" .XXXXXXXXXXXXXXXXXXXXXXXXXXXXo ",
" .XXXX.XXXXXXXXOXXXXXXXOXOXXOXo ",
" .XXX.XoXXXXXXOOXXXXXXOXXOOXOXo ",
" .XX.XXXoXXXXXXOXXXOXXOOXOXOOXo ",
" .XXXoXoXXXXXXXOXXOXOXOXXOXOOXo ",
" .XXXXoXXXXXXXXOXXXOXXOXXOXXOXo ",
" .XXXXXXXXXXXXXXXXXXXXXXXXXXXXo ",
" .ooooooooooooooooooooooooooooo ",
"                                "};
