/* XPM */
static char * Scale_xpm[] = {
"32 32 4 1",
" 	c steelblue4",
".	c black",
"X	c steelblue1",
"o	c steelblue3",
"                                ",
"                                ",
"          ................      ",
"          .             X.      ",
"          .             X.      ",
"          .             X.      ",
"          .             X.      ",
"          .             X.      ",
"          .             X.      ",
"          .             X.      ",
"          .             X.      ",
"          .             X.      ",
"          .             X.      ",
"          .             X.      ",
"          . XXXXXXXXXXXXX.      ",
"          . Xoooooooooo.X.      ",
"       .  . Xoooooooooo.X.      ",
"      ..  . Xoooooooooo.X.      ",
"     . .  . Xoooooooooo.X.      ",
"       .  . X...........X.      ",
"       .  . Xoooooooooo.X.      ",
"       .  . Xoooooooooo.X.      ",
"       .  . Xoooooooooo.X.      ",
"      ... . Xoooooooooo.X.      ",
"          . X...........X.      ",
"          .             X.      ",
"          .             X.      ",
"          .             X.      ",
"          .XXXXXXXXXXXXXX.      ",
"          ................      ",
"                                ",
"                                "};
