/* XPM */
static char * ScrolledList_xpm[] = {
"32 32 6 1",
" 	s None	c None",
".	c steelblue2",
"X	c steelblue3",
"o	c steelblue4",
"O	c black",
"+	c white",
"                                ",
" .............................. ",
" .XXXXXXXXXXXXXXXXXXXXXXXXXXXXo ",
" .XooooooooooooooooooooooXoooXo ",
" .XoXXXXXXXXXXXXXXXXXXXX.Xoo.Xo ",
" .XoXOXXXXOXXOOOXOOOOOXX.XoX.Xo ",
" .XoXOXXXXOXOXXXXXXOXXXX.Xoo.Xo ",
" .XoXOXXXXOXXOOXXXXOXXXX.Xoo.Xo ",
" .XoXOXXXXOXXXXOXXXOXXXX.Xoo.Xo ",
" .XoXOOOOXOXOOOXXXXOXXXX.Xoo.Xo ",
" .XoXXXXXXXXXXXXXXXXXXXX.Xoo.Xo ",
" .XoOOOOOOOOOOOOOOOOOOOO.Xoo.Xo ",
" .XoO+OOOO+OO+++O+++++OO.Xoo.Xo ",
" .XoO+OOOO+O+OOOOOO+OOOO.Xoo.Xo ",
" .XoO+OOOO+OO++OOOO+OOOO.Xoo.Xo ",
" .XoO+OOOO+OOOO+OOO+OOOO.Xoo.Xo ",
" .XoO++++O+O+++OOOO+OOOO.Xoo.Xo ",
" .XoOOOOOOOOOOOOOOOOOOOO.XoX.Xo ",
" .XoXXXXXXXXXXXXXXXXXXXX.XoX.Xo ",
" .XoXXXXXXXXXXXXXXXXXXXX.XoX.Xo ",
" .XoXXXXXXXXXXXXXXXXXXXX.XoX.Xo ",
" .XoXXXXXXXXXXXXXXXXXXXX.XoX.Xo ",
" .XoXXXXXXXXXXXXXXXXXXXX.XoX.Xo ",
" .XoXXXXXXXXXXXXXXXXXXXX.Xoo.Xo ",
" .Xo.....................Xo..Xo ",
" .XXXXXXXXXXXXXXXXXXXXXXXXXXXXo ",
" .XooooooooooooooooooooooXXXXXo ",
" .XooXooooooooooooooXXXo.XXXXXo ",
" .Xo.....................XXXXXo ",
" .XXXXXXXXXXXXXXXXXXXXXXXXXXXXo ",
" .ooooooooooooooooooooooooooooo ",
"                                "};
