/* XPM */
static char * ScrollBar_xpm[] = {
"32 32 5 1",
" 	s None	c None",
".	c steelblue4",
"X	c steelblue2",
"o	c steelblue1",
"O	c steelblue3",
"           ............         ",
"           .XXXXo.XXXXo         ",
"           .XXXoXX.XXXo         ",
"           .XXoXXXX.XXo         ",
"           .XoXXXXXX.Xo         ",
"           .o.........o         ",
"           .ooooooooo.o         ",
"           .oooooooo..o         ",
"           .ooXXXXXX..o         ",
"           .ooXXXXXX..o         ",
"           .ooXXXXXX..o         ",
"           .ooXXXXXX..o         ",
"           .ooXXXXXX..o         ",
"           .ooXXXXXX..o         ",
"           .ooXXXXXX..o         ",
"           .ooXXXXXX..o         ",
"           .ooXXXXXX..o         ",
"           .ooXXXXXX..o         ",
"           .ooXXXXXX..o         ",
"           .o.........o         ",
"           ...........o         ",
"           .OOOOOOOOOOo         ",
"           .OOOOOOOOOOo         ",
"           .OOOOOOOOOOo         ",
"           .OOOOOOOOOOo         ",
"           .OOOOOOOOOOo         ",
"           .ooooooooooo         ",
"           .XoXXXXXX.Xo         ",
"           .XXoXXXX.XXo         ",
"           .XXXoXX.XXXo         ",
"           .XXXXo.XXXXo         ",
"           .ooooooooooo         "};
