/* XPM */
static char * ScrolledCSText_xpm[] = {
"32 32 6 1",
" 	s None	c None",
".	c steelblue2",
"X	c steelblue3",
"o	c steelblue4",
"O	c peachpuff4",
"+	c black",
"                                ",
" .............................. ",
" .XXXXXXXXXXXXXXXXXXXXXXXXXXXXo ",
" .XooooooooooooooooooooooXoooXo ",
" .XoOOOOOOOOOOOOOOO+O+OO.Xoo.Xo ",
" .XoOOO++OO++O++++OO+OOO.XoX.Xo ",
" .XoOO+OOO+OOOOO+OOO+OOO.Xoo.Xo ",
" .XoO+OOOOO+OOO+OOOO+OOO.Xoo.Xo ",
" .XoO+OOOOO+OOO+OOOO+OOO.Xoo.Xo ",
" .XoOO++O++OOO+OOOOO+OOO.Xoo.Xo ",
" .XoOOOOOOOOOOOOOOO+O+OO.Xoo.Xo ",
" .XoO+++++++++++++OOOOOO.Xoo.Xo ",
" .XoOOOOOOOOOOOOOOOOOOOO.Xoo.Xo ",
" .XoOOOOOOOOOOOOOOOOOOOO.Xoo.Xo ",
" .XoOOOOOOOOOOOOOOOOOOOO.Xoo.Xo ",
" .XoOOOOOOOOOOOOOOOOOOOO.Xoo.Xo ",
" .XoOOOOOOOOOOOOOOOOOOOO.Xoo.Xo ",
" .XoOOOOOOOOOOOOOOOOOOOO.XoX.Xo ",
" .XoOOOOOOOOOOOOOOOOOOOO.XoX.Xo ",
" .XoOOOOOOOOOOOOOOOOOOOO.XoX.Xo ",
" .XoOOOOOOOOOOOOOOOOOOOO.XoX.Xo ",
" .XoOOOOOOOOOOOOOOOOOOOO.XoX.Xo ",
" .XoOOOOOOOOOOOOOOOOOOOO.XoX.Xo ",
" .XoOOOOOOOOOOOOOOOOOOOO.Xoo.Xo ",
" .Xo.....................Xo..Xo ",
" .XXXXXXXXXXXXXXXXXXXXXXXXXXXXo ",
" .XooooooooooooooooooooooXXXXXo ",
" .XooXooooooooooooooXXXo.XXXXXo ",
" .Xo.....................XXXXXo ",
" .XXXXXXXXXXXXXXXXXXXXXXXXXXXXo ",
" .ooooooooooooooooooooooooooooo ",
"                                "};
