/* XPM */
static char * SelectionDialog_xpm[] = {
"32 32 6 1",
" 	s None	c None",
".	c black",
"X	c peachpuff",
"o	c steelblue3",
"O	c steelblue4",
"+	c steelblue2",
"                                ",
" .............................. ",
" .XXX.XXXXXXXXXXXXXXXXXXXXXXXX. ",
" .X.X.XXXXXXXXXXXXXXXXXXXXXXXX. ",
" .XXX.XXXXXXXXXXXXXXXXXXXXXXXX. ",
" .............................. ",
" .oooooooooooooooooooooooooooo. ",
" .oooooooooooooooooooooooooooo. ",
" .oOOOOOOOOOOOOOOOOOOOOOOoOOOo. ",
" .oOoooooooooooooooooooo+oOO+o. ",
" .oOoooooooooooooooooooo+oOo+o. ",
" .oOoooooooooooooooooooo+oOO+o. ",
" .oOoooooooooooooooooooo+oOO+o. ",
" .oOoooooooooooooooooooo+oOO+o. ",
" .oOoooooooooooooooooooo+oOO+o. ",
" .oOoooooooooooooooooooo+oOO+o. ",
" .oOoooooooooooooooooooo+oOO+o. ",
" .oOoooooooooooooooooooo+oOo+o. ",
" .oOoooooooooooooooooooo+oOo+o. ",
" .oOoooooooooooooooooooo+oOo+o. ",
" .oO+++++++++++++++++++++oO++o. ",
" .oooooooooooooooooooooooooooo. ",
" .oooooooooooooooooooooooooooo. ",
" .oOOOOOOOOOOOOOOOOOOOOOOOOOOo. ",
" .oOoooooooooooooooooooooooo+o. ",
" .oOoooooooooooooooooooooooo+o. ",
" .oO+++++++++++++++++++++++++o. ",
" .oooooooooooooooooooooooooooo. ",
" .............................. ",
"                                ",
"                                ",
"                                "};
