/* XPM */
static char * SpinBox_xpm[] = {
"32 32 5 1",
" 	s None	c None",
".	c steelblue2",
"X	c steelblue3",
"o	c steelblue4",
"O	c black",
"                                ",
"                                ",
"                                ",
"                                ",
"                                ",
"                                ",
" .............................. ",
" .XXXXXXXXXXXXXXXXXXXo.XXXXXXXo ",
" .XXXXXXXXXXXXXXXXXXXo.XXXXXXXo ",
" .XXXXXXXXXXXXXXXXXXXo.XXXXXXXo ",
" .XXXXXXXXXXXXXXXXXXXo.XXXXXXXo ",
" .XXXXXXXXXXXXXXXXXXXo.XXXOXXXo ",
" .XXXXXXXXXXXXXXXXXXXo.XXOOOXXo ",
" .XXXXXXXXXXXXXXXXXXXo.XOOOOOXo ",
" .XXXXXXXXXXXXXXXXXXXo.XXXXXXXo ",
" .XXXXXXXXXXXXXXXXXXXo.XXXXXXXo ",
" .XXXXXXXXXXXXXXXXXXXo.XXXXXXXo ",
" .XXXXXXXXXXXXXXXXXXXo.XXXXXXXo ",
" .XXXXXXXXXXXXXXXXXXXo.XOOOOOXo ",
" .XXXXXXXXXXXXXXXXXXXo.XXOOOXXo ",
" .XXXXXXXXXXXXXXXXXXXo.XXXOXXXo ",
" .XXXXXXXXXXXXXXXXXXXo.XXXXXXXo ",
" .XXXXXXXXXXXXXXXXXXXo.XXXXXXXo ",
" .XXXXXXXXXXXXXXXXXXXo.XXXXXXXo ",
" .XXXXXXXXXXXXXXXXXXXo.XXXXXXXo ",
" .ooooooooooooooooooooooooooooo ",
"                                ",
"                                ",
"                                ",
"                                ",
"                                ",
"                                "};
