/* XPM */
static char * Stop_xpm[] = {
"36 36 3 1",
" 	c #CF3CCF3CCF3C",
".	c black",
"X	c red",
"                                    ",
"                                    ",
"                                    ",
"                                    ",
"                                    ",
"           .............            ",
"          .XXXXXXXXXXXXX.           ",
"         .XXXXXXXXXXXXXXX.          ",
"        .XXXXXXXXXXXXXXXXX.         ",
"       .XXXXXXXXXXXXXXXXXXX.        ",
"      .XXXXXXXXXXXXXXXXXXXXX.       ",
"     .XXXXXXXXXXXXXXXXXXXXXXX.      ",
"     .XXXXXXXXXXXXXXXXXXXXXXX.      ",
"     .XX...X.....X...XX....XX.      ",
"     .X.XXX.XX.XX.XXX.XX.XX.X.      ",
"     .X.XXXXXX.XX.XXX.XX.XX.X.      ",
"     .X.XXXXXX.XX.XXX.XX.XX.X.      ",
"     .XX...XXX.XX.XXX.XX...XX.      ",
"     .XXXXX.XX.XX.XXX.XX.XXXX.      ",
"     .XXXXX.XX.XX.XXX.XX.XXXX.      ",
"     .X.XXX.XX.XX.XXX.XX.XXXX.      ",
"     .XX...XXX.XXX...XXX.XXXX.      ",
"     .XXXXXXXXXXXXXXXXXXXXXXX.      ",
"     .XXXXXXXXXXXXXXXXXXXXXXX.      ",
"      .XXXXXXXXXXXXXXXXXXXXX.       ",
"       .XXXXXXXXXXXXXXXXXXX.        ",
"        .XXXXXXXXXXXXXXXXX.         ",
"         .XXXXXXXXXXXXXXX.          ",
"          .XXXXXXXXXXXXX.           ",
"           .............            ",
"                                    ",
"                                    ",
"                                    ",
"                                    ",
"                                    ",
"                                    "};
