/* XPM */
static char * Templates_xpm[] = {
"30 30 3 1",
" 	c grey50",
".	c black",
"X	c white",
"                              ",
"                              ",
"     .....................    ",
"     .XXXXXXXXXXXXXXXXXXX..   ",
"     .XXXXXXXXXXXXXXXXXXX.X.  ",
"     .XX....XX.........XX.XX. ",
"     .XXXXXXXXXXXXXXXXXXX.XX. ",
"     .XX....XXXXXXXXXXXXX.XX. ",
"     .XXXXXXXXXXXXXXXXXXX.XX. ",
"     .XX............XXXXX.XX. ",
"     .XXXXXXXXXXXXXXXXXXX.XX. ",
"     .XX........X......XX.XX. ",
"     .XXXXXXXXXXXXXXXXXXX.XX. ",
"     .XXXXXXXXXXXXXXXXXXX.XX. ",
"     .XXXXXXXXXXXXXXXXXXX.XX. ",
" ....................XXXX.XX. ",
" .XXXXXXXXXXXXXXXXXXX.XXX..X. ",
" .XXXXXXXXXXXXXXXXXXX.XX.X.X. ",
" .XXXXXXXXXXXXXXXXXXX.XX.X.X. ",
"  .XXXXXXXXXXXXXXXXXXX.X.X.X. ",
"   .....................XX.X. ",
"      .XXXXXXXXXXXXXXXXXXX.X. ",
"      .XX...XX..........XX.X. ",
"      .XXXXXXXXXXXXXXXXXXX.X. ",
"      .XXXXXXXXXXXXXXXXXXX.X. ",
"      .....................X. ",
"       .XXXXXXXXXXXXXXXXXXX.. ",
"        ..................... ",
"                              ",
"                              "};
