/* XPM */
static char * TextField_xpm[] = {
"32 32 5 1",
" 	s None	c None",
".	c steelblue4",
"X	c black",
"o	c peachpuff3",
"O	c peachpuff4",
"                                ",
"                                ",
"                                ",
"                                ",
"                                ",
"                                ",
"                                ",
"                                ",
"................................",
".XXXXXXXXXXXXXXXXXXXXXXXXXXXXXX.",
".XXXXXXXXXXXXXXXXXXXXXXXXXXXXXo.",
".XXOOOOOOOOOOOOOOOOOOOOOOOOOOoo.",
".XXOXXXXXOXXXXXOXOOOXOXXXXXOOoo.",
".XXOOOXOOOXOOOOOOXOXOOOOXOOOOoo.",
".XXOOOXOOOXOOOOOOXOXOOOOXOOOOoo.",
".XXOOOXOOOXXXXOOOOXOOOOOXOOOOoo.",
".XXOOOXOOOXOOOOOOXOXOOOOXOOOOoo.",
".XXOOOXOOOXOOOOOOXOXOOOOXOOOOoo.",
".XXOOOXOOOXXXXXOXOOOXOOOXOOOOoo.",
".XXOOOOOOOOOOOOOOOOOOOOOOOOOOoo.",
".XXoooooooooooooooooooooooooooo.",
".Xooooooooooooooooooooooooooooo.",
"................................",
"................................",
"                                ",
"                                ",
"                                ",
"                                ",
"                                ",
"                                ",
"                                ",
"                                "};
