/* XPM */
static char * ToggleButton_xpm[] = {
"32 32 5 1",
" 	s None	c None",
".	c black",
"X	c steelblue3",
"o	c steelblue2",
"O	c steelblue4",
"                                ",
"                                ",
"                                ",
"                                ",
"                                ",
"                                ",
"                                ",
" .............................. ",
" .XXXXXXXXXXXXXXXXXXXXXXXXXXXX. ",
" .XXXXXXXXXXXXXXXXXXXXXXXXXXXX. ",
" .XXoooooooooooXXXXXXXXXXXXXXX. ",
" .XXooooooooooOXXXXXXXXXXXXXXX. ",
" .XXoooooooooOOXXXXXXXXXXXXXXX. ",
" .XXooooooooOOOXXXXXXXXXXXXXXX. ",
" .XXooooXXXOOOOXXXXXXXXXXXXXXX. ",
" .XXooooXXXOOOOXXXXXXXXXXXXXXX. ",
" .XXooooXXXOOOOXXXXXXXXXXXXXXX. ",
" .XXooooOOOOOOOXXXXXXXXXXXXXXX. ",
" .XXoooOOOOOOOOXXXXXXXXXXXXXXX. ",
" .XXooOOOOOOOOOXXXXXXXXXXXXXXX. ",
" .XXoOOOOOOOOOOXXXXXXXXXXXXXXX. ",
" .XXXXXXXXXXXXXXXXXXXXXXXXXXXX. ",
" .XXXXXXXXXXXXXXXXXXXXXXXXXXXX. ",
" .............................. ",
"                                ",
"                                ",
"                                ",
"                                ",
"                                ",
"                                ",
"                                ",
"                                "};
