/* XPM */
static char * TransientShell_xpm[] = {
"32 32 5 1",
" 	s None	c None",
".	c black",
"X	c peachpuff",
"o	c steelblue4",
"O	c steelblue2",
"                                ",
" ...............                ",
" .X.XXXXXXX.X.X.                ",
" ...............                ",
" .ooooooooooooo.                ",
" .ooooooooooooo.                ",
" .oooo......................... ",
" .oooo.XXX.XXXXXXXXXXX.XXX.XXX. ",
" .oooo.XXX.XXXXXXXXXXX.XXX.XXX. ",
" .oooo.XXX.XXXXXXXXXXX.XXX.XXX. ",
" .oooo......................... ",
" .oooo.OOOOOOOOOOOOOOOOOOOOOOO. ",
" .oooo.OOOOOOOOOOOOOOOOOOOOOOO. ",
" ......OOOOOOOOOOOOOOOOOOOOOOO. ",
"      .OOOOOOOOOOOOOOOOOOOOOOO. ",
"      .OOOOOOOOOOOOOOOOOOOOOOO. ",
"      .OOOOOOOOOOOOOOOOOOOOOOO. ",
"      .OOOOOOOOOOOOOOOOOOOOOOO. ",
"      .OOOOOOOOOOOOOOOOOOOOOOO. ",
"      .OOOOOOOOOOOOOOOOOOOOOOO. ",
"      .OOOOOOOOOOOOOOOOOOOOOOO. ",
"      .OOOOOOOOOOOOOOOOOOOOOOO. ",
"      .OOOOOOOOOOOOOOOOOOOOOOO. ",
"      .OOOOOOOOOOOOOOOOOOOOOOO. ",
"      .OOOOOOOOOOOOOOOOOOOOOOO. ",
"      .OOOOOOOOOOOOOOOOOOOOOOO. ",
"      .OOOOOOOOOOOOOOOOOOOOOOO. ",
"      .OOOOOOOOOOOOOOOOOOOOOOO. ",
"      .OOOOOOOOOOOOOOOOOOOOOOO. ",
"      .OOOOOOOOOOOOOOOOOOOOOOO. ",
"      ......................... ",
"                                "};
