/* XPM */
static char * WarningDialog_xpm[] = {
"32 32 7 1",
" 	s None	c None",
".	c red",
"X	c black",
"o	c peachpuff",
"O	c steelblue2",
"+	c steelblue3",
"@	c steelblue4",
"                                ",
"                                ",
"                                ",
"             .......            ",
"             .......            ",
"XXXXXXXXXXXXXX.....XXXXXXXXXXXXX",
"XoooXooooooooo.....ooooooooooooX",
"XoXoXooooooooo.....ooooooooooooX",
"XoooXooooooooo.....ooooooooooooX",
"XXXXXXXXXXXXXXX...XXXXXXXXXXXXXX",
"XOOOOOOOOOOOOOO...OOOOOOOOOOOOOX",
"XO+++++++++++++...++++++++++++@X",
"XO+++++++++++++...++++++++++++@X",
"XO++++++++++++++.+++++++++++++@X",
"XO++++++++++++++.+++++++++++++@X",
"XO++++++++++++++++++++++++++++@X",
"XO++++++++++++++++++++++++++++@X",
"XO@@@@@@@@@@@@@@@@@@@@@@@@@@@@@X",
"XOOOOOOOOOOOOOO...OOOOOOOOOOOOOX",
"XO+++++++++++++...++++++++++++@X",
"XO+OOOOOOO+++OO...OO++OOOOOOO+@X",
"XO+O+++++@+++O+++++@++O+++++@+@X",
"XO+O@@@@@@+++O@@@@@@++O@@@@@@+@X",
"XO++++++++++++++++++++++++++++@X",
"XO@@@@@@@@@@@@@@@@@@@@@@@@@@@@@X",
"XXXXXXXXXXXXXXXXXXXXXXXXXXXXXXXX",
"                                ",
"                                ",
"                                ",
"                                ",
"                                ",
"                                "};
