/* XPM */
static char * WorkingDialog_xpm[] = {
"32 32 6 1",
" 	s None	c None",
".	c black",
"X	c peachpuff",
"o	c steelblue2",
"O	c steelblue3",
"+	c steelblue4",
"                                ",
"                                ",
"                                ",
"           ..........           ",
"            ..    ..            ",
"................................",
".XXX.XXXXXXX.X.XX.X.XXXXXXXXXXX.",
".X.X.XXXXXXX.X....X.XXXXXXXXXXX.",
".XXX.XXXXXXX.X....X.XXXXXXXXXXX.",
"................................",
".ooooooooooo.oo..oo.ooooooooooo.",
".oOOOOOOOOOO.OO..OO.OOOOOOOOOO+.",
".oOOOOOOOOOO.OO..OO.OOOOOOOOOO+.",
".oOOOOOOOOOO.OO..OO.OOOOOOOOOO+.",
".oOOOOOOOOOO.O.OO.O.OOOOOOOOOO+.",
".oOOOOOOOOOO.O.OO.O.OOOOOOOOOO+.",
".oOOOOOOOOOO.O....O.OOOOOOOOOO+.",
".o++++++++++........+++++++++++.",
".ooooooooooo........ooooooooooo.",
".oOOOOOOOOO..........OOOOOOOOO+.",
".oOoooooooOOOoooooooOOoooooooO+.",
".oOoOOOOO+OOOoOOOOO+OOoOOOOO+O+.",
".oOo++++++OOOo++++++OOo++++++O+.",
".oOOOOOOOOOOOOOOOOOOOOOOOOOOOO+.",
".o+++++++++++++++++++++++++++++.",
"................................",
"                                ",
"                                ",
"                                ",
"                                ",
"                                ",
"                                "};
