/* XPM */
static char * XfeButton_xpm[] = {
/* width height ncolors cpp [x_hot y_hot] */
"32 32 5 1 0 0",
/* colors */
" 	c #e0e0e0",
".	c #b0b0b0",
"X	c #d0d0d0",
"o	s iconColor1	m black	c black",
"O	s iconColor7	m white	c cyan",
/* pixels */
"                                ",
"                               .",
"  XXXXXXXXXXXXXXXXXXXXXXXXXXXX..",
"  XXXXXXXXXXXXXXXXXXXXXXXXXXXX..",
"  XXXXXXXXXXXXXXXXXXXXXXXXXXXX..",
"  XXXXXXXXXXXooXXXXXXXXXXXXXXX..",
"  XXXXXXXXXXoOooXXXXXXXXXXXXXX..",
"  XXXXXXXXXXooooXXXXXXXXXXXXXX..",
"  XXXXXXXXXXXXooXXXXXXXXXXXXXX..",
"  XXXXXXXXXXoXoooXXXXXXXXXXXXX..",
"  XXXXXXXXXXXoooXXXXXXXXXXXXXX..",
"  XXXXXXXXXXXooooXooXXXXXXXXXX..",
"  XXXXXXXXXXXooooooXXXXXXXXXXX..",
"  XXXXXXXXXXoXoXXXXXXXXXXXXXXX..",
"  XXXXXXXXXoXXoXXXXXXXXXXXXXXX..",
"  XXXXXXXXXXXXXXXXXXXXXXXXXXXX..",
"  XXXXXXXXXXXXXXXXXXXXXXXXXXXX..",
"  XXXXXXXXXXXXXXXXXXXXXXXXXXXX..",
"  XoooXXXXXXXXoXXXoXXXXXXXXXXX..",
"  XoXXoXXXXXXoooXoooXXXXXXXXXX..",
"  XoXXoXXXXXXXoXXXoXXXXXXXXXXX..",
"  XoXXoXXXXXXXoXXXoXXXXXXXXXXX..",
"  XoooXXoXXoXXoXXXoXXXoXXoXoXX..",
"  XoXXoXoXXoXXoXXXoXXoXoXooXoX..",
"  XoXXoXoXXoXXoXXXoXXoXoXoXXoX..",
"  XoXXoXoXooXXoXXXoXXoXoXoXXoX..",
"  XoooXXXoXoXXXoXXXoXXoXXoXXoX..",
"  XXXXXXXXXXXXXXXXXXXXXXXXXXXX..",
"  XXXXXXXXXXXXXXXXXXXXXXXXXXXX..",
"  XXXXXXXXXXXXXXXXXXXXXXXXXXXX..",
"  ..............................",
" ..............................."};
