/* XPM */
static char * XfeCascade_xpm[] = {
/* width height ncolors cpp [x_hot y_hot] */
"32 32 6 1 0 0",
/* colors */
" 	s none	m none	c none",
".	c #e0e0e0",
"X	c #b0b0b0",
"o	c #d0d0d0",
"O	s iconColor1	m black	c black",
"+	s iconColor7	m white	c cyan",
/* pixels */
"                                ",
"                                ",
"                                ",
"                                ",
"                                ",
"                                ",
"................................",
"...............................X",
"..ooooooooooooooooooooooooooooXX",
"..ooooooooooooooooooooooooooooXX",
"..ooooooooooooooooooooooooooooXX",
"..ooooooooOOooooooooooooooooooXX",
"..oooooooO+OOoooooooooooXXooooXX",
"..oooooooOOOOoooooooooooXXXoooXX",
"..oooooooooOOoooooooooooXXXXooXX",
"..oooooooOoOOOooooooooooXXXXXoXX",
"..ooooooooOOOoooooooooooXXXXooXX",
"..ooooooooOOOOoOOoooooooXXXoooXX",
"..ooooooooOOOOOOooooooooXXooooXX",
"..oooooooOoOooooooooooooooooooXX",
"..ooooooOooOooooooooooooooooooXX",
"..ooooooooooooooooooooooooooooXX",
"..ooooooooooooooooooooooooooooXX",
"..XXXXXXXXXXXXXXXXXXXXXXXXXXXXXX",
".XXXXXXXXXXXXXXXXXXXXXXXXXXXXXXX",
"                                ",
"                                ",
"                                ",
"                                ",
"                                ",
"                                ",
"                                "};
