/* XPM */
static char * XfeDashBoard_xpm[] = {
/* width height ncolors cpp [x_hot y_hot] */
"32 32 5 1 0 0",
/* colors */
" 	c #e0e0e0",
".	c #b0b0b0",
"X	c #d0d0d0",
"o	s iconColor1	m black	c black",
"O	s iconColor7	m white	c cyan",
/* pixels */
"                                ",
"                               .",
"  XXXXXXXXXXXXXXXXXXXXXXXXXXXX..",
"  XXXXXXXXXXXXXXXXXXXXXXXXXXXX..",
"  XXXX.oooXXXXXXXXXXX.oooXXXXX..",
"  XXX.oXXXoXXXXXXXXX.oXXXoXXXX..",
"  XX.oXXXXXoXXXXXXX.oXX.oXoXXX..",
"  XXoX..XXX.oXXXXXXoXXX.oX.oXX..",
"  XXoXoooXX.o....XXoXXXoXX.oXX..",
"  XXoXXXXXX.o.ooooXoXXXXXX.oXX..",
"  XXXoXXXX.oX.oXXoXXoXXXX.oXXX..",
"  XXXXo...oXXXooooXXXo...oXXXX..",
"  XXXXXoooXXXXXXXXXXXXoooXXXXX..",
"  XXXXXXXXXXXXXXXXXXXXXXXXXXXX..",
"  XXXXXXXXXXXXXXXXXXXXXXXXXXXX..",
"  XXXXXXXXXXXXXXXXXXXXXXXXXXXX..",
"  XXXXXXXXXXXXXXXXXXXXXXXXXXXX..",
"  XXXXXXXXXXXXXXXXXXXXXXXXXXXX..",
"  XXXooXXXXXXXXXXXXXXXXXXXXXXX..",
"  XXoOooXXXXXXXXXXXXXXXXXXXXXX..",
"  XXooooXXXXXXXXXXXXXXXXXXXXXX..",
"  XXXXooXXXXXXXXXXXXXXXXXXXXXX..",
"  XXoXoooXXXXXXXXXXXXXXXXXXXXX..",
"  XXXoooXXXXXXXXXXXXXXXXXXXXXX..",
"  XXXooooXooXXXXXXXXXXXXXXXXXX..",
"  XXXooooooXXXXXXXXXXXXXXXXXXX..",
"  XXoXoXXXXXXXXXXXXXXXXXXXXXXX..",
"  XoXXoXXXXXXXXXXXXXXXXXXXXXXX..",
"  XXXXXXXXXXXXXXXXXXXXXXXXXXXX..",
"  XXXXXXXXXXXXXXXXXXXXXXXXXXXX..",
"  ..............................",
" ..............................."};
