/* XPM */
static char * XfeLabel_xpm[] = {
/* width height ncolors cpp [x_hot y_hot] */
"32 32 6 1 0 0",
/* colors */
" 	s none	m none	c none",
".	c #e0e0e0",
"X	c #d0d0d0",
"o	c #b0b0b0",
"O	s iconColor1	m black	c black",
"+	s iconColor7	m white	c cyan",
/* pixels */
"                                ",
"                                ",
"                                ",
"                                ",
"                                ",
"                                ",
"                                ",
"                                ",
"                                ",
" .............................. ",
" .XXXXXXXXXXXXXXXXXXXXXXXXXXXXo ",
" .XOXXXOXXOXXXXXXXXXXXOOXXXXXXo ",
" .XOXXXOXOXOXXXXXXXXXO+OOXXXXXo ",
" .XXOXOXXOXXXXXXXXXXXOOOOXXXXXo ",
" .XXOXOXXOXXXXOOXXXXXXXOOXXXXXo ",
" .XXXOXXOOOXXOXXOXXXXOXOOOXXXXo ",
" .XXXOXXXOXXXOOOOXXXXXOOOXXXXXo ",
" .XXOXOXXOXXXOXXXXXXXXOOOOXOOXo ",
" .XXOXOXXOXXXOXXXXXXXXOOOOOOXXo ",
" .XOXXXOXOXXXOXXOXXXXOXOXXXXXXo ",
" .XOXXXOXOXXXXOOXXXXOXXOXXXXXXo ",
" .XXXXXXXXXXXXXXXXXXXXXXXXXXXXo ",
" .XXXXXXXXXXXXXXXXXXXXXXXXXXXXo ",
" .ooooooooooooooooooooooooooooo ",
"                                ",
"                                ",
"                                ",
"                                ",
"                                ",
"                                ",
"                                ",
"                                "};
