/* XPM */
static char * XfeProgressBar_xpm[] = {
/* width height ncolors cpp [x_hot y_hot] */
"32 32 5 1 0 0",
/* colors */
" 	s none	m none	c none",
".	c #e0e0e0",
"X	c #b0b0b0",
"o	c #d0d0d0",
"O	s iconColor7	m white	c cyan",
/* pixels */
"                                ",
"                                ",
"                                ",
"                                ",
"                                ",
"                                ",
"                                ",
"                                ",
"................................",
"...............................X",
"..ooooooooooooooooooooooooooooXX",
"..oXXXXXXXXXXXXXXXXXXXXXXXXXXoXX",
"..oXOOOOOOOOOOOOOOOOXXXXXXXXXoXX",
"..oXOOOOOOOOOOOOOOOOXXXXXXXXXoXX",
"..oXOOOOOOOOOOOOOOOOXXXXXXXXXoXX",
"..oXOOOOOOOOOOOOOOOOXXXXXXXXXoXX",
"..oXOOOOOOOOOOOOOOOOXXXXXXXXXoXX",
"..oXOOOOOOOOOOOOOOOOXXXXXXXXXoXX",
"..oXOOOOOOOOOOOOOOOOXXXXXXXXXoXX",
"..oXOOOOOOOOOOOOOOOOXXXXXXXXXoXX",
"..oXOOOOOOOOOOOOOOOOXXXXXXXXXoXX",
"..oXXXXXXXXXXXXXXXXXXXXXXXXXXoXX",
"..ooooooooooooooooooooooooooooXX",
"..XXXXXXXXXXXXXXXXXXXXXXXXXXXXXX",
".XXXXXXXXXXXXXXXXXXXXXXXXXXXXXXX",
"                                ",
"                                ",
"                                ",
"                                ",
"                                ",
"                                ",
"                                "};
