/* XPM */
static char * XfePane_xpm[] = {
/* width height ncolors cpp [x_hot y_hot] */
"32 32 5 1 0 0",
/* colors */
" 	c #e0e0e0",
".	c #b0b0b0",
"X	c #d0d0d0",
"o	s iconColor1	m black	c black",
"O	s iconColor7	m white	c cyan",
/* pixels */
"                                ",
"                               .",
"  XXXXXXXXXXX  ..XXXXXXXXXXXXX..",
"  XXXXXXXXXXX  ..XXXXXXXXXXXXX..",
"  XXXXXXXXXXX  ..XXXXXXXXXXXXX..",
"  XXXXXXXXXXX  ..XXXXXXXXXXXXX..",
"  XXXXXXXXXXo  ..oXXXXXXXXXXXX..",
"  XXXXXXXXXooooooooXXXXXXXXXXX..",
"  XXXXXXXXXooooooooXXXXXXXXXXX..",
"  XXXXXXXXXXo  ..oXXXXXXXXXXXX..",
"  XXXXXXXXXXX  ..XXXXXXXXXXXXX..",
"  XXXXXXXXXXX  ..XXXXXXXXXXXXX..",
"  XXXXXXXXXXX  ..XXXXXXXXXXXXX..",
"  XXXXXXXXXXX  ..XXXXXXXXXXXXX..",
"  XXXXXXXXXXX  ..XXXXXXXXXXXXX..",
"  XXXXXXXXXXX  ..XXXXXXXXXXXXX..",
"  XXXXXXXXXXX  ..XXXXXXXXXXXXX..",
"  XXXXXXXXXXX  ..XXXXXXXXXXXXX..",
"  XXXooXXXXXX  ..XXXXXXXXXXXXX..",
"  XXoOooXXXXX  ..XXXXXXXXXXXXX..",
"  XXooooXXXXX  ..XXXXXXXXXXXXX..",
"  XXXXooXXXXX  ..XXXXXXXXXXXXX..",
"  XXoXoooXXXX  ..XXXXXXXXXXXXX..",
"  XXXoooXXXXX  ..XXXXXXXXXXXXX..",
"  XXXooooXooX  ..XXXXXXXXXXXXX..",
"  XXXooooooXX  ..XXXXXXXXXXXXX..",
"  XXoXoXXXXXX  ..XXXXXXXXXXXXX..",
"  XoXXoXXXXXX  ..XXXXXXXXXXXXX..",
"  XXXXXXXXXXX  ..XXXXXXXXXXXXX..",
"  XXXXXXXXXXX  ..XXXXXXXXXXXXX..",
"  ..............................",
" ..............................."};
