/* XPM */
static char * XfeToolBox_xpm[] = {
/* width height ncolors cpp [x_hot y_hot] */
"32 32 5 1 0 0",
/* colors */
" 	c #e0e0e0",
".	c #b0b0b0",
"X	s iconColor1	m black	c black",
"o	c #d0d0d0",
"O	s iconColor7	m white	c cyan",
/* pixels */
"                                ",
"                               .",
"  Xooo          .o          .o..",
"  oXoo ooooooooo.o ooooooooo.o..",
"  Xooo ooooooooo.o ooooooooo.o..",
"  oXoo ooooooooo.o ooooooooo.o..",
"  Xooo ooooooooo.o ooooooooo.o..",
"  oXoo ooooooooo.o ooooooooo.o..",
"  Xooo ooooooooo.o ooooooooo.o..",
"  oXoo ooooooooo.o ooooooooo.o..",
"  Xooo ooooooooo.o ooooooooo.o..",
"  oXoo ooooooooo.o ooooooooo.o..",
"  Xooo ooooooooo.o ooooooooo.o..",
"  oXoo...........o...........o..",
"  oooooooooooooooooooooooooooo..",
"  oooooooooooooooooooooooooooo..",
"  oooooooooooooooooooooooooooo..",
"  Xooo          .o          .o..",
"  oXoo ooooooooo.o ooXXooooo.o..",
"  Xooo ooooooooo.o oXOXXoooo.o..",
"  oXoo ooooooooo.o oXXXXoooo.o..",
"  Xooo ooooooooo.o oooXXoooo.o..",
"  oXoo ooooooooo.o oXoXXXooo.o..",
"  Xooo ooooooooo.o ooXXXoooo.o..",
"  oXoo ooooooooo.o ooXXXXoXX.o..",
"  Xooo ooooooooo.o ooXXXXXXo.o..",
"  oXoo ooooooooo.o oXoXooooo.o..",
"  Xooo ooooooooo.o XooXooooo.o..",
"  oXoo...........o...........o..",
"  oooooooooooooooooooooooooooo..",
"  ..............................",
" ..............................."};
