/* XPM */
static char * XfeToolBar_xpm[] = {
/* width height ncolors cpp [x_hot y_hot] */
"32 32 6 1 0 0",
/* colors */
" 	s none	m none	c none",
".	c #e0e0e0",
"X	c #b0b0b0",
"o	s iconColor1	m black	c black",
"O	c #d0d0d0",
"+	s iconColor7	m white	c cyan",
/* pixels */
"                                ",
"                                ",
"                                ",
"                                ",
"                                ",
"                                ",
"................................",
"...............................X",
"..oOOOOOOOOOOOOOOOOOOOOOOOOOOOXX",
"..OoOOOOOOOOOOOOOOOOOOOOOOOOOOXX",
"..oOOOO......................OXX",
"..OoOOO.OOooOOOOOX.OOooOOOOOXOXX",
"..oOOOO.Oo+ooOOOOX.Oo+ooOOOOXOXX",
"..OoOOO.OooooOOOOX.OooooOOOOXOXX",
"..oOOOO.OOOooOOOOX.OOOooOOOOXOXX",
"..OoOOO.OoOoooOOOX.OoOoooOOOXOXX",
"..oOOOO.OOoooOOOOX.OOoooOOOOXOXX",
"..OoOOO.OOooooOooX.OOooooOooXOXX",
"..oOOOO.OOooooooOX.OOooooooOXOXX",
"..OoOOO.OoOoOOOOOX.OoOoOOOOOXOXX",
"..oOOOO.oOOoOOOOOX.oOOoOOOOOXOXX",
"..OoOOO.XXXXXXXXXX.XXXXXXXXXXOXX",
"..oOOOOOOOOOOOOOOOOOOOOOOOOOOOXX",
"..XXXXXXXXXXXXXXXXXXXXXXXXXXXXXX",
".XXXXXXXXXXXXXXXXXXXXXXXXXXXXXXX",
"                                ",
"                                ",
"                                ",
"                                ",
"                                ",
"                                ",
"                                "};
