/* XPM */
static char * XfeToolItem_xpm[] = {
/* width height ncolors cpp [x_hot y_hot] */
"32 32 6 1 0 0",
/* colors */
" 	s none	m none	c none",
".	c #e0e0e0",
"X	c #b0b0b0",
"o	c #d0d0d0",
"O	s iconColor1	m black	c black",
"+	s iconColor7	m white	c cyan",
/* pixels */
"                                ",
"                                ",
"                                ",
"                                ",
"                                ",
"                                ",
"                                ",
"................................",
"...............................X",
"..ooooooooooooooooooooooooooooXX",
"..o..........................oXX",
"..o.oooooooooooooX.ooOOoooooXoXX",
"..o.oooooooooooooX.oO+OOooooXoXX",
"..o.oooooooooooooX.oOOOOooooXoXX",
"..o.oooooooooooooX.oooOOooooXoXX",
"..o.oooooooooooooX.oOoOOOoooXoXX",
"..o.oooooooooooooX.ooOOOooooXoXX",
"..o.oooooooooooooX.ooOOOOoOOXoXX",
"..o.oooooooooooooX.ooOOOOOOoXoXX",
"..o.oooooooooooooX.oOoOoooooXoXX",
"..o.oooooooooooooX.OooOoooooXoXX",
"..oXXXXXXXXXXXXXXX.XXXXXXXXXXoXX",
"..ooooooooooooooooooooooooooooXX",
"..XXXXXXXXXXXXXXXXXXXXXXXXXXXXXX",
".XXXXXXXXXXXXXXXXXXXXXXXXXXXXXXX",
"                                ",
"                                ",
"                                ",
"                                ",
"                                ",
"                                ",
"                                "};
