/* XPM */
static char * XfeTaskBar_xpm[] = {
/* width height ncolors cpp [x_hot y_hot] */
"32 32 5 1 0 0",
/* colors */
" 	s none	m none	c none",
".	c #e0e0e0",
"X	c #b0b0b0",
"o	s iconColor1	m black	c black",
"O	c #d0d0d0",
/* pixels */
"                                ",
"                                ",
"                                ",
"                                ",
"                                ",
"                                ",
"................................",
"...............................X",
"..oOoOoOOOOOOOOOOOOOOOOOOOOOOOXX",
"..OoOoOOOOOOOOOOOOOOOOOOOOOOOOXX",
"..oOoOo......................OXX",
"..OoOoO.OOOOOOOOOOOOOOOOOOOOXOXX",
"..oOoOo.OOOOOOOOOOOOOOOOOOOOXOXX",
"..OoOoO.OOOOOOOOOOOOOOOOOOOOXOXX",
"..oOoOo.OOOOOOOOOOOOOOOOOOOOXOXX",
"..OoOoO.OOOOOOOOOOOOOOOOOOOOXOXX",
"..oOoOo.OOOOOOOOOOOOOOOOOOOOXOXX",
"..OoOoO.OOOOOOOOOOOOOOOOOOOOXOXX",
"..oOoOo.OOOOOOOOOOOOOOOOOOOOXOXX",
"..OoOoO.OOOOOOOOOOOOOOOOOOOOXOXX",
"..oOoOo.XXXXXXXXXXXXXXXXXXXXXOXX",
"..OoOoOOOOOOOOOOOOOOOOOOOOOOOOXX",
"..oOoOoOOOOOOOOOOOOOOOOOOOOOOOXX",
"..XXXXXXXXXXXXXXXXXXXXXXXXXXXXXX",
".XXXXXXXXXXXXXXXXXXXXXXXXXXXXXXX",
"                                ",
"                                ",
"                                ",
"                                ",
"                                ",
"                                ",
"                                "};
