/* XPM */
static char * XlButtonBox_xpm[] = {
/* width height ncolors cpp [x_hot y_hot] */
"32 32 4 1 0 0",
/* colors */
" 	s none	m none	c none",
".	s iconColor8	m black	c magenta",
"X	s iconColor7	m white	c cyan",
"o	s iconColor1	m black	c black",
/* pixels */
"                                ",
"                                ",
"                                ",
"                                ",
"                                ",
"                                ",
"                                ",
"                                ",
"............................... ",
"............................... ",
".XXXXXXXXX.XXXXXXXXX.XXXXXXXXX. ",
".XXXXXXXXX.XXXXXXXXX.XXXXXXXXX. ",
".XXXoooXXX.XXXoooXXX.XoXXXXXoX. ",
".XXoXXXoXX.XXoXXXoXX.XoXXXXXoX. ",
".XoXXXXXoX.XoXXXXXXX.XoXXXXXoX. ",
".XoXXXXXoX.XoXXXXXXX.XoooooooX. ",
".XoXXXXXoX.XoXXXXXXX.XoXXXXXoX. ",
".XoXXXXXoX.XoXXXXXXX.XoXXXXXoX. ",
".XXoXXXoXX.XXoXXXoXX.XoXXXXXoX. ",
".XXXoooXXX.XXXoooXXX.XoXXXXXoX. ",
".XXXXXXXXX.XXXXXXXXX.XXXXXXXXX. ",
"............................... ",
"............................... ",
"                                ",
"                                ",
"                                ",
"                                ",
"                                ",
"                                ",
"                                ",
"                                ",
"                                "};
