/* XPM */
static char * XlBubble_xpm[] = {
/* width height ncolors cpp [x_hot y_hot] */
"32 32 3 1 0 0",
/* colors */
" 	s none	m none	c none",
".	s iconColor1	m black	c black",
"X	s iconColor8	m black	c magenta",
/* pixels */
"                                ",
"                                ",
"                                ",
"                                ",
"                                ",
"                                ",
"                                ",
"                                ",
"                                ",
"................................",
".XXXXXXXXXXXXXXXXXXXXXXXXXXXXXX.",
".XXXXXXXXXXXXXXXXXXXXXXXXXXXXXX.",
".XX...XXXXXXX.XXX.XXX.XXXXXXXXX.",
".XX.XX.XXXXXX.XXX.XXX.XXXXXXXXX.",
".XX.XX.XXXXXX.XXX.XXX.XXXXXXXXX.",
".XX...XXXXXXX.XXX.XXX.XXXXXXXXX.",
".XX.XX.X.XX.X..XX..XX.XXXX..XXX.",
".XX.XX.X.XX.X.X.X.X.X.XXX.XX.XX.",
".XX.XX.X.XX.X.X.X.X.X.XXX...XXX.",
".XX.XX.X.XX.X.X.X.X.X.XXX.XXXXX.",
".XX...XXX..XX..XX..XXX..XX..XXX.",
".XXXXXXXXXXXXXXXXXXXXXXXXXXXXXX.",
".XXXXXXXXXXXXXXXXXXXXXXXXXXXXXX.",
"................................",
"                                ",
"                                ",
"                                ",
"                                ",
"                                ",
"                                ",
"                                ",
"                                "};
