/* XPM */
static char * XlCellTable_xpm[] = {
/* width height ncolors cpp [x_hot y_hot] */
"32 32 3 1 0 0",
/* colors */
" 	s iconColor8	m black	c magenta",
".	s iconColor1	m black	c black",
"X	s iconColor7	m white	c cyan",
/* pixels */
"       .              .         ",
" XXXXX .              . XXXX    ",
" XXXXX      XXXXXXX     XXXX    ",
" XXXXX .    XXXXXXX   . XXXX    ",
" XXXXX .    XXXXXXX   . XXXX    ",
" XXXXX      XXXXXXX     XXXX    ",
" XXXXX .    XXXXXXX   . XXXX    ",
" XXXXX .    XXXXXXX   . XXXX    ",
" XXXXX                  XXXX    ",
"       .              .         ",
". .. .. .. .. .. .. .. .. .. .. ",
"                                ",
"       . XXXXXXXXXXXX .         ",
"       . XXXXXXXXXXXX .         ",
"         XXXXXXXXXXXX           ",
"       . XXXXXXXXXXXX .         ",
"       . XXXXXXXXXXXX .         ",
"         XXXXXXXXXXXX           ",
"       .              .         ",
"       .              .         ",
"                                ",
"       .              .         ",
"       .              .         ",
". .. .. .. .. .. .. .. .. .. .. ",
"       .              .         ",
"       .       XXXXXX . XXXXXXX ",
"               XXXXXX   XXXXXXX ",
"       .       XXXXXX . XXXXXXX ",
"       .       XXXXXX . XXXXXXX ",
"                        XXXXXXX ",
"       .              . XXXXXXX ",
"       .              .         "};
