/* XPM */
static char * XlDrawer_xpm[] = {
/* width height ncolors cpp [x_hot y_hot] */
"32 32 4 1 0 0",
/* colors */
" 	s none	m none	c none",
".	s iconColor8	m black	c magenta",
"X	s iconColor1	m black	c black",
"o	s iconColor7	m white	c cyan",
/* pixels */
"                                ",
"............................... ",
".XXXXX..X.X.X..XX.............. ",
"..XXX....X..X..X.X.XX..X....... ",
"..XXX....X..X..X.X.X..X.X...... ",
"...X....X.X..X.XX..X...X....... ",
"............................... ",
".ooooooooooooooooooooooooooooo. ",
".ooooooooooooooooooooooooooooo. ",
".ooooooooooooooooooooooooooooo. ",
".ooooooooooooooooooooooooooooo. ",
".ooooooooooooooooooooooooooooo. ",
".ooooooooooooooooooooooooooooo. ",
".ooooooooooooooooooooooooooooo. ",
".ooooooooooooooooooooooooooooo. ",
".ooooooooooooooooooooooooooooo. ",
".ooooooooooooooooooooooooooooo. ",
".ooooooooooooooooooooooooooooo. ",
".ooooooooooooooooooooooooooooo. ",
".ooooooooooooooooooooooooooooo. ",
".ooooooooooooooooooooooooooooo. ",
".ooooooooooooooooooooooooooooo. ",
".ooooooooooooooooooooooooooooo. ",
".ooooooooooooooooooooooooooooo. ",
".ooooooooooooooooooooooooooooo. ",
".ooooooooooooooooooooooooooooo. ",
".ooooooooooooooooooooooooooooo. ",
"............................... ",
"...........................XXX. ",
".XXXXXXXXXXXXXXXXXXXXXXXX..XXX. ",
"...........................XXX. ",
"............................... "};
