/* XPM */
static char * Xrt3d_xpm[] = {
/* width height ncolors cpp [x_hot y_hot] */
"32 32 2 1 0 0",
/* colors */
" 	s iconColor5	m black	c blue",
".	s iconColor6	m white	c yellow",
/* pixels */
"                                ",
" .............................. ",
" ........................     . ",
" ........................ ... . ",
" .......... ............. . . . ",
" .........   ............ ... . ",
" .......... ............. . . . ",
" .......... ............. ... . ",
" .......... ............. . . . ",
" .......... ............. ... . ",
" .......... ............. . . . ",
" .......... ............. ... . ",
" .......... .............     . ",
" .......... ................... ",
" .......... ................... ",
" .......... ................... ",
" .......... ................... ",
" .......... ................... ",
" .......... ................... ",
" .......... ................... ",
" .......... ........... ....... ",
" ..........              ...... ",
" ......... ............ ....... ",
" ........ ..................... ",
" ......  ...................... ",
" ..... ........................ ",
" ...  ......................... ",
" ...  ......................... ",
" .............................. ",
" .............................. ",
" .............................. ",
"                                "};
