/* XPM */
static char * XrtAligner_xpm[] = {
/* width height ncolors cpp [x_hot y_hot] */
"32 32 4 1 0 0",
/* colors */
" 	s none	m none	c none",
".	c #363664648B8B",
"X	s iconColor6	m white	c yellow",
"o	s iconColor5	m black	c blue",
/* pixels */
"                                ",
" .............................. ",
" .XXXXXXXoXXXXXXXXXXXXXXXXXXXX. ",
" .XXXXXXXoXXXXXXXXXXXXXXXXXXXX. ",
" .XXXXXXXoXXXXXXXXXXXXXXXXXXXX. ",
" .XXoooooooooooXXXooooooooooXX. ",
" .XXoooooooooooXXXooooooooooXX. ",
" .XXoooooooooooXXXooooooooooXX. ",
" .oooooooooooooooooooooooooooo. ",
" .XXoooooooooooXXXooooooooooXX. ",
" .XXoooooooooooXXXooooooooooXX. ",
" .XXoooooooooooXXXooooooooooXX. ",
" .XXXXXXXoXXXXXXXXXXXXXXXXXXXX. ",
" .XXXXXXXoXXXXXXXXXXXXXXXXXXXX. ",
" .XXXXXXXoXXXXXXXXXXXXXXXXXXXX. ",
" .XXoooooooooooXXXXXXXXXXXXXXX. ",
" .XXoooooooooooXXXXXXXXXXXXXXX. ",
" .XXoooooooooooXXXXXXXXXXXXXXX. ",
" .XXoooooooooooXXXXXXXXXXXXXXX. ",
" .XXoooooooooooXXXXXXXXXXXXXXX. ",
" .XXoooooooooooXXXXXXXXXXXXXXX. ",
" .XXoooooooooooXXXXXXXXXXXXXXX. ",
" .XXoooooooooooXXXXXXXXXXXXXXX. ",
" .XXoooooooooooXXXXXXXXXXXXXXX. ",
" .XXXXXXXoXXXXXXXXXXXXXXXXXXXX. ",
" .XXXXXXXoXXXXXXXXXXXXXXXXXXXX. ",
" .XXXXXXXoXXXXXXXXXXXXXXXXXXXX. ",
" .XXXXXXXoXXXXXXXXXXXXXXXXXXXX. ",
" .XXXXXXXoXXXXXXXXXXXXXXXXXXXX. ",
" .XXXXXXXoXXXXXXXXXXXXXXXXXXXX. ",
" ........o..................... ",
"                                "};
