/* XPM */
static char * XrtCurrencyField_xpm[] = {
/* width height ncolors cpp [x_hot y_hot] */
"32 32 3 1 0 0",
/* colors */
" 	s none	m none	c none",
".	s iconColor5	m black	c blue",
"X	s iconColor6	m white	c yellow",
/* pixels */
"                                ",
"                                ",
"                                ",
"                                ",
"                                ",
"                                ",
"                                ",
"                                ",
" .............................. ",
" .XXXXXXXXXXXXXXXXXXXXXXXXXXXX. ",
" .XXX..XXXXX...XXXXXXXX...XXXX. ",
" .XX....XXX.XXX.XXXXXX.XXX.XXX. ",
" .X.X..X.X.XXXXX.XXXX.XXXXX.XX. ",
" .X.X..XXX.XXXXX.XXXX.XXXXX.XX. ",
" .X.X..XXX.XXXXX.XXXX.XXXXX.XX. ",
" .XX....XX.XXXXX.XXXX.XXXXX.XX. ",
" .XXX..X.X.XXXXX.XXXX.XXXXX.XX. ",
" .XXX..X.X.XXXXX.XXXX.XXXXX.XX. ",
" .X.X..X.X.XXXXX.XXXX.XXXXX.XX. ",
" .XX....XXX.XXX.XX..XX.XXX.XXX. ",
" .XXX..XXXXX...XXX..XXX...XXXX. ",
" .XXXXXXXXXXXXXXXXXXXXXXXXXXXX. ",
" .............................. ",
"                                ",
"                                ",
"                                ",
"                                ",
"                                ",
"                                ",
"                                ",
"                                ",
"                                "};
