/* XPM */
static char * XrtCombo_xpm[] = {
/* width height ncolors cpp [x_hot y_hot] */
"32 32 3 1 0 0",
/* colors */
" 	s none	m none	c none",
".	s iconColor5	m black	c blue",
"X	s iconColor6	m white	c yellow",
/* pixels */
"                                ",
"                                ",
"                                ",
"                                ",
"                                ",
"                                ",
"                                ",
"                                ",
"................................",
".XXXXXXXXXXXXXXXXXXX.XXXXXXXXXX.",
".XXXXXXXXXXXXXXXXXXX.XXXXXXXXXX.",
".XXXXXXXXXXXXXXXXXXX.XXXXXXXXXX.",
".XXXXXXXXXXXXXXXXXXX.XXXXXXXXXX.",
".XXXXXXXXXXXXXXXXXXX.X.XXXXXX.X.",
".XXXXXXXXXXXXXXXXXXX.X..XXXX..X.",
".XXXXXXXXXXXXXXXXXXX.XX..XX..XX.",
".XXXXXXXXXXXXXXXXXXX.XXX....XXX.",
".XXXXXXXXXXXXXXXXXXX.XXXX..XXXX.",
".XXXXXXXXXXXXXXXXXXX.XXXXXXXXXX.",
".XXXXXXXXXXXXXXXXXXX.XXXXXXXXXX.",
".XXXXXXXXXXXXXXXXXXX.XXXXXXXXXX.",
".XXXXXXXXXXXXXXXXXXX.XXXXXXXXXX.",
".XXXXXXXXXXXXXXXXXXX.XXXXXXXXXX.",
"................................",
"                                ",
"                                ",
"                                ",
"                                ",
"                                ",
"                                ",
"                                ",
"                                "};
