/* XPM */
static char * XrtDateField_xpm[] = {
/* width height ncolors cpp [x_hot y_hot] */
"32 32 3 1 0 0",
/* colors */
" 	s none	m none	c none",
".	s iconColor5	m black	c blue",
"X	s iconColor6	m white	c yellow",
/* pixels */
"                                ",
"                                ",
"                                ",
"                                ",
"                                ",
"                                ",
"                                ",
"                                ",
" .............................. ",
" .XXXXXXXXXXXXXXXXXXXXXXXXXXXX. ",
" .XXXXXXXXXXXXXXXXXXXXXXXXXXXX. ",
" .XXX.XXX..XXXXXXXX..XXXXX..XX. ",
" .XX..XX.XX.XX..XX.XX.XXX.XX.X. ",
" .X.X.XXXXXX.X..X.XXXX.X.XXXX.. ",
" .XXX.XXXXXX.XXXX.XXXX.X.XXXX.. ",
" .XXX.XXXXXX.XXXX.XXXX.X.XXXX.. ",
" .XXX.XXXXX.XXXXX.XXXX.X.XXXX.. ",
" .XXX.XXXX.XXX..X.XXXX.X.XXXX.. ",
" .XXX.XXX.XXXX..XX.XX.XXX.XX.X. ",
" .XXX.XX.....XXXXXX..XXXXX..XX. ",
" .XXXXXXXXXXXXXXXXXXXXXXXXXXXX. ",
" .XXXXXXXXXXXXXXXXXXXXXXXXXXXX. ",
" .............................. ",
"                                ",
"                                ",
"                                ",
"                                ",
"                                ",
"                                ",
"                                ",
"                                ",
"                                "};
