/* XPM */
static char * XrtFloatField_xpm[] = {
/* width height ncolors cpp [x_hot y_hot] */
"32 32 3 1 0 0",
/* colors */
" 	s none	m none	c none",
".	s iconColor5	m black	c blue",
"X	s iconColor6	m white	c yellow",
/* pixels */
"                                ",
"                                ",
"                                ",
"                                ",
"                                ",
"                                ",
"                                ",
"                                ",
" .............................. ",
" .XXXXXXXXXXXXXXXXXXXXXXXXXXXX. ",
" .XXXXXXXXXXXXXXXXXXXXXXXXXXXX. ",
" .XXX...XXXXXXXX.XXXXXXXXXXXXX. ",
" .XX.XXX.XXXXXX..XXXXXXXXXXXXX. ",
" .X.XXXXX.XXXX.X.XXXXXXXXXXXXX. ",
" .X.XXXXX.XXX.XX.XXXXXXXXXXXXX. ",
" .X.XXXXX.XXXXXX.XXXXXXXXXXXXX. ",
" .X.XXXXX.XXXXXX.XXXXXXXXXXXXX. ",
" .X.XXXXX.XXXXXX.XXXXXXXXXXXXX. ",
" .XX.XXX.XX..XXX.XXXXXXXXXXXXX. ",
" .XXX...XXX..XXX.XXXXXXXXXXXXX. ",
" .XXXXXXXXXXXXXXXXXXXXXXXXXXXX. ",
" .XXXXXXXXXXXXXXXXXXXXXXXXXXXX. ",
" .............................. ",
"                                ",
"                                ",
"                                ",
"                                ",
"                                ",
"                                ",
"                                ",
"                                ",
"                                "};
