/* XPM */
static char * XrtField_xpm[] = {
/* width height ncolors cpp [x_hot y_hot] */
"32 32 3 1 0 0",
/* colors */
" 	s none	m none	c none",
".	s iconColor5	m black	c blue",
"X	s iconColor6	m white	c yellow",
/* pixels */
"                                ",
"                                ",
"                                ",
"                                ",
"                                ",
"                                ",
"                                ",
"                                ",
" .............................. ",
" .XXXXXXXXXXXXXXXXXXXXXXXXXXXX. ",
" .XXXXXXXXXXXXXXXXXXXXXXXXXXXX. ",
" .XXX.....X.XXXXX.....XXXXXXXX. ",
" .XXX.XXXXX.XXXXXXX.XXXXXXXXXX. ",
" .XXX.XXXXX.XXXXXXX.XXXXXXXXXX. ",
" .XXX.XXXXX.XXXXXXX.XXXXXXXXXX. ",
" .XXX...XXX.XXXXXXX.XXXXXXXXXX. ",
" .XXX.XXXXX.XXXXXXX.XXXXXXXXXX. ",
" .XXX.XXXXX.XXXXXXX.XXXXXXXXXX. ",
" .XXX.XXXXX.XXXXXXX.XXXXXXXXXX. ",
" .XXX.XXXXX.....XXX.XXXXXXXXXX. ",
" .XXXXXXXXXXXXXXXXXXXXXXXXXXXX. ",
" .XXXXXXXXXXXXXXXXXXXXXXXXXXXX. ",
" .............................. ",
"                                ",
"                                ",
"                                ",
"                                ",
"                                ",
"                                ",
"                                ",
"                                ",
"                                "};
