/* XPM */
static char * XrtIntField_xpm[] = {
/* width height ncolors cpp [x_hot y_hot] */
"32 32 3 1 0 0",
/* colors */
" 	s none	m none	c none",
".	s iconColor5	m black	c blue",
"X	s iconColor6	m white	c yellow",
/* pixels */
"                                ",
"                                ",
"                                ",
"                                ",
"                                ",
"                                ",
"                                ",
"                                ",
" .............................. ",
" .XXXXXXXXXXXXXXXXXXXXXXXXXXXX. ",
" .XXXXXXXXXXXXXXXXXXXXXXXXXXXX. ",
" .XXXX.XXXX..XXXXXXXXXXXXXXXXX. ",
" .XXX..XXX.XX.XXXXXXXXXXXXXXXX. ",
" .XX.X.XXXXXXX.XXXXXXXXXXXXXXX. ",
" .XXXX.XXXXXXX.XXXXXXXXXXXXXXX. ",
" .XXXX.XXXXXX.XXXXXXXXXXXXXXXX. ",
" .XXXX.XXXXX.XXXXXXXXXXXXXXXXX. ",
" .XXXX.XXXX.XXXXXXXXXXXXXXXXXX. ",
" .XXXX.XXX.XXXXXXXXXXXXXXXXXXX. ",
" .XXXX.XXX.....XXXXXXXXXXXXXXX. ",
" .XXXXXXXXXXXXXXXXXXXXXXXXXXXX. ",
" .XXXXXXXXXXXXXXXXXXXXXXXXXXXX. ",
" .............................. ",
"                                ",
"                                ",
"                                ",
"                                ",
"                                ",
"                                ",
"                                ",
"                                ",
"                                "};
