/* XPM */
static char * XrtOutliner_xpm[] = {
/* width height ncolors cpp [x_hot y_hot] */
"32 32 3 1 0 0",
/* colors */
" 	s iconColor5	m black	c blue",
".	s iconColor6	m white	c yellow",
"X	s iconColor1	m black	c black",
/* pixels */
"                                ",
" .............................. ",
" .............................. ",
" ..X........................... ",
" ..X........................... ",
" ..X....XXXXXXXXXXXXXXXXXXXX... ",
" ..X....X                  X... ",
" ..X....X                  X... ",
" ..XXXXXX                  X... ",
" ..X....X                  X... ",
" ..X....X                  X... ",
" ..X....X                  X... ",
" ..X....XXXXXXXXXXXXXXXXXXXX... ",
" ..X........X.................. ",
" ..X........X.................. ",
" ..X........X...XXXXXXXXXXXXXX. ",
" ..X........X...X            X. ",
" ..X........X...X            X. ",
" ..X........XXXXX            X. ",
" ..X............X            X. ",
" ..X............XXXXXXXXXXXXXX. ",
" ..X........................... ",
" ..X........................... ",
" ..X....XXXXXXXXXXXXXXXXXXXX... ",
" ..X....X                  X... ",
" ..X....X                  X... ",
" ..XXXXXX                  X... ",
" .......X                  X... ",
" .......X                  X... ",
" .......XXXXXXXXXXXXXXXXXXXX... ",
" .............................. ",
"                                "};
