/* XPM */
static char * XrtPushButton_xpm[] = {
/* width height ncolors cpp [x_hot y_hot] */
"32 32 3 1 0 0",
/* colors */
" 	s none	m none	c none",
".	s iconColor5	m black	c blue",
"X	s iconColor6	m white	c yellow",
/* pixels */
"                                ",
"                                ",
"                                ",
"                                ",
"                                ",
"                                ",
"                                ",
"                                ",
" .............................. ",
" .XXXXXXXXXXXXXXXXXXXXXXXXXXXX. ",
" .XXXXXXXXXXXXXXXXXXXXXXXXXXXX. ",
" .XX...XX.XX.XXX..XX.XX.XXXXXX. ",
" .XX.XX.X.XX.XX.XX.X.XX.XXXXXX. ",
" .XX.XX.X.XX.X.XXXXX.XX.XXXXXX. ",
" .XX.XX.X.XX.X.XXXXX.XX.XXXXXX. ",
" .XX...XX.XX.XX.XXXX....XXXXXX. ",
" .XX.XXXX.XX.XXX..XX.XX.XXXXXX. ",
" .XX.XXXX.XX.XXXXX.X.XX.XXXXXX. ",
" .XX.XXXX.XX.X..XX.X.XX.XXXXXX. ",
" .XX.XXXXX..XXX...XX.XX.XXXXXX. ",
" .XXXXXXXXXXXXXXXXXXXXXXXXXXXX. ",
" .XXXXXXXXXXXXXXXXXXXXXXXXXXXX. ",
" .............................. ",
"                                ",
"                                ",
"                                ",
"                                ",
"                                ",
"                                ",
"                                ",
"                                ",
"                                "};
