/* XPM */
static char * XrtProgress_xpm[] = {
/* width height ncolors cpp [x_hot y_hot] */
"32 32 5 1 0 0",
/* colors */
" 	s none	m none	c none",
".	s iconColor5	m black	c blue",
"X	s iconColor3	m black	c red",
"o	s iconColor6	m white	c yellow",
"O	s iconColor1	m black	c black",
/* pixels */
"                                ",
"                                ",
"                                ",
"                                ",
"                                ",
"                                ",
"                                ",
"                                ",
"                                ",
"................................",
".XXXXXXXXXXXXXXXooooooooooooooo.",
".XXXXXXXXXXXXXXXooooooooooooooo.",
".XXXXXXXXXXXXXXXooooooooooooooo.",
".XXXXXXXXXXXXXXXooooooooooooooo.",
".XXXXXXXXXXXOOOOooOOooOooOooooo.",
".XXXXXXXXXXXOXXXoOooOoooOoooooo.",
".XXXXXXXXXXXOOOXoOooOoooOoooooo.",
".XXXXXXXXXXXXXXOoOooOooOooooooo.",
".XXXXXXXXXXXOXXOoOooOooOooooooo.",
".XXXXXXXXXXXXOOXooOOooOooOooooo.",
".XXXXXXXXXXXXXXXooooooooooooooo.",
".XXXXXXXXXXXXXXXooooooooooooooo.",
".XXXXXXXXXXXXXXXooooooooooooooo.",
"................................",
"                                ",
"                                ",
"                                ",
"                                ",
"                                ",
"                                ",
"                                ",
"                                "};
