/* XPM */
static char * XrtStringField_xpm[] = {
/* width height ncolors cpp [x_hot y_hot] */
"32 32 3 1 0 0",
/* colors */
" 	s none	m none	c none",
".	s iconColor5	m black	c blue",
"X	s iconColor6	m white	c yellow",
/* pixels */
"                                ",
"                                ",
"                                ",
"                                ",
"                                ",
"                                ",
"                                ",
"                                ",
" .............................. ",
" .XXXXXXXXXXXXXXXXXXXXXXXXXXXX. ",
" .XXXXXXXXXXXXXXXXXXXXXXXXXXXX. ",
" .XXX..XX.....X...XXXXXXXXXXXX. ",
" .XX.XX.XXX.XXX.XX.XXXXXXXXXXX. ",
" .XX.XXXXXX.XXX.XX.XXXXXXXXXXX. ",
" .XX.XXXXXX.XXX...XXXXXXXXXXXX. ",
" .XXX..XXXX.XXX.X.XXXXXXXXXXXX. ",
" .XXXXX.XXX.XXX.X.XXXXXXXXXXXX. ",
" .XXXXX.XXX.XXX.XX.XXXXXXXXXXX. ",
" .XX.XX.XXX.XXX.XX.XXXXXXXXXXX. ",
" .XXX..XXXX.XXX.XX.XXXXXXXXXXX. ",
" .XXXXXXXXXXXXXXXXXXXXXXXXXXXX. ",
" .XXXXXXXXXXXXXXXXXXXXXXXXXXXX. ",
" .............................. ",
"                                ",
"                                ",
"                                ",
"                                ",
"                                ",
"                                ",
"                                ",
"                                ",
"                                "};
