/* XPM */
static char * XrtToolbar_xpm[] = {
/* width height ncolors cpp [x_hot y_hot] */
"32 32 4 1 0 0",
/* colors */
" 	s none	m none	c none",
".	s iconColor5	m black	c blue",
"X	s iconColor6	m white	c yellow",
"o	s iconColor1	m black	c black",
/* pixels */
"                                ",
"                                ",
"                                ",
"                                ",
"                                ",
"                                ",
"                                ",
"                                ",
"                                ",
"................................",
".XXXXXXXXXXXXXXXXXXXXXXXXXXXXXX.",
".X..........XX..........XXXXXXX.",
".X..........XX..........XXXXXXX.",
".X..oooooo..XX....oo....XXXXXXX.",
".X....oo....XX...o..o...XXXXXXX.",
".X....oo....XX..o....o..XXXXXXX.",
".X....oo....XX..o....o..XXXXXXX.",
".X....oo....XX..o....o..XXXXXXX.",
".X....oo....XX..o....o..XXXXXXX.",
".X....oo....XX...o..o...XXXXXXX.",
".X....oo....XX....oo....XXXXXXX.",
".X..........XX..........XXXXXXX.",
".XXXXXXXXXXXXXXXXXXXXXXXXXXXXXX.",
"................................",
"                                ",
"                                ",
"                                ",
"                                ",
"                                ",
"                                ",
"                                ",
"                                "};
