/* XPM */
static char * XrtTabButton_xpm[] = {
/* width height ncolors cpp [x_hot y_hot] */
"32 32 3 1 0 0",
/* colors */
" 	s none	m none	c none",
".	s iconColor5	m black	c blue",
"X	s iconColor6	m white	c yellow",
/* pixels */
"                                ",
"                                ",
"                                ",
"                                ",
"                                ",
"                                ",
"                                ",
"                                ",
"    ........................    ",
"   .XXXXXXXXXXXXXXXXXXXXXXXX.   ",
"  .XXXXXXXXXXXXXXXXXXXXXXXXXX.  ",
" .XXXXXXXXXXXXXXXXXXXXXXXXXXXX. ",
" .XXX.....XX..XX...XXXXXXXXXXX. ",
" .XXXXX.XXX.XX.X.XX.XXXXXXXXXX. ",
" .XXXXX.XXX.XX.X...XXXXXXXXXXX. ",
" .XXXXX.XXX....X.XX.XXXXXXXXXX. ",
" .XXXXX.XXX.XX.X.XX.XXXXXXXXXX. ",
" .XXXXX.XXX.XX.X...XXXXXXXXXXX. ",
" .XXXXXXXXXXXXXXXXXXXXXXXXXXXX. ",
" .XXXXXXXXXXXXXXXXXXXXXXXXXXXX. ",
" .XXXXXXXXXXXXXXXXXXXXXXXXXXXX. ",
" .XXXXXXXXXXXXXXXXXXXXXXXXXXXX. ",
" .XXXXXXXXXXXXXXXXXXXXXXXXXXXX. ",
"                                ",
"                                ",
"                                ",
"                                ",
"                                ",
"                                ",
"                                ",
"                                ",
"                                "};
