/* XPM */
static char * XrtToggleButton_xpm[] = {
/* width height ncolors cpp [x_hot y_hot] */
"32 32 3 1 0 0",
/* colors */
" 	s none	m none	c none",
".	s iconColor5	m black	c blue",
"X	s iconColor6	m white	c yellow",
/* pixels */
"                                ",
"                                ",
"                                ",
"                                ",
"                                ",
"                                ",
"                                ",
"                                ",
" .............................. ",
" .XXXXXXXXXXXXXXXXXXXXXXXXXXXX. ",
" .XXXXXXXXXXXXXXXXXXXXXXXXXXXX. ",
" .XXXXXXXXXX.......XX...XXXXXX. ",
" .XXXX.XXXXXXXX.XXXX.XXX.XXXXX. ",
" .XXX...XXXXXXX.XXX.XXXXX.XXXX. ",
" .XX.....XXXXXX.XXX.XXXXX.XXXX. ",
" .X.......XXXXX.XXX.XXXXX.XXXX. ",
" .XX.....XXXXXX.XXX.XXXXX.XXXX. ",
" .XXX...XXXXXXX.XXX.XXXXX.XXXX. ",
" .XXXX.XXXXXXXX.XXXX.XXX.XXXXX. ",
" .XXXXXXXXXXXXX.XXXXX...XXXXXX. ",
" .XXXXXXXXXXXXXXXXXXXXXXXXXXXX. ",
" .XXXXXXXXXXXXXXXXXXXXXXXXXXXX. ",
" .............................. ",
"                                ",
"                                ",
"                                ",
"                                ",
"                                ",
"                                ",
"                                ",
"                                ",
"                                "};
