#define asChild_width 16
#define asChild_height 16
static char asChild_bits[] = {
   0x00, 0x00, 0x1c, 0x00, 0x1c, 0x00, 0x1c, 0x08, 0x1c, 0x18, 0xfc, 0x3f,
   0xfc, 0x7f, 0xfc, 0x3f, 0x00, 0x18, 0x00, 0x08, 0x00, 0x00, 0x00, 0x00,
   0x00, 0x00, 0x00, 0x00, 0x00, 0x00, 0x00, 0x00};
