#define asChildMask_width 16
#define asChildMask_height 16
static char asChildMask_bits[] = {
   0x3e, 0x00, 0x3e, 0x00, 0x3e, 0x0c, 0x3e, 0x1c, 0xfe, 0x3f, 0xfe, 0x7f,
   0xfe, 0xff, 0xfe, 0x7f, 0xfe, 0x3f, 0x00, 0x1c, 0x00, 0x0c, 0x00, 0x00,
   0x00, 0x00, 0x00, 0x00, 0x00, 0x00, 0x00, 0x00};
