#define forbiddenMask_width 16
#define forbiddenMask_height 16
static char forbiddenMask_bits[] = {
   0x00, 0x00, 0x80, 0x03, 0xe0, 0x0f, 0xf8, 0x3f, 0xf8, 0x3f, 0xfc, 0x7f,
   0xfc, 0x7f, 0xfe, 0xff, 0xfe, 0xff, 0xfe, 0xff, 0xfc, 0x7f, 0xfc, 0x7f,
   0xf8, 0x3f, 0xf8, 0x3f, 0xe0, 0x0f, 0x80, 0x03};
