/* XPM */
static char * helpnode_xpm[] = {
"20 20 4 1",
" 	s None	c None",
".	c black",
"X	c brown",
"o	c peachpuff",
"                    ",
"   ...............  ",
" ..XXXXXXXXXXXXXX.  ",
" .XXXXXXXXXXXXXXX.  ",
" .XXXXXXooooXXXXX.  ",
" .XXXXXooXXooXXXX.  ",
" .XXXXooXXXXooXXX.  ",
" .XXXXoXXXXXooXXX.  ",
" .XXXXXXXXXXooXXX.  ",
" .XXXXXXXXXooXXXX.  ",
" .XXXXXXXXooXXXXX.  ",
" .XXXXXXXooXXXXXX.  ",
" .XXXXXXXooXXXXXX.  ",
" .XXXXXXXXXXXXXXX.  ",
" .XXXXXXXooXXXXXX.  ",
" .XXXXXXXooXXXXXX.  ",
" .XXXXXXXXXXXXXXX.  ",
" .................  ",
" .oooooooooooooo.   ",
"  ................  "};
