#define insertBeforeMask_width 16
#define insertBeforeMask_height 16
static char insertBeforeMask_bits[] = {
   0x00, 0x0c, 0x00, 0x1c, 0xff, 0x3f, 0xff, 0x7f, 0xff, 0xff, 0xff, 0x7f,
   0xff, 0x3f, 0x00, 0x1c, 0x00, 0x0c, 0x00, 0x00, 0x00, 0x00, 0x00, 0x00,
   0x00, 0x00, 0x00, 0x00, 0x00, 0x00, 0x00, 0x00};
