#define insertBefore_width 16
#define insertBefore_height 16
static char insertBefore_bits[] = {
   0x00, 0x00, 0x00, 0x08, 0x00, 0x18, 0xfe, 0x3f, 0xfe, 0x7f, 0xfe, 0x3f,
   0x00, 0x18, 0x00, 0x08, 0x00, 0x00, 0x00, 0x00, 0x00, 0x00, 0x00, 0x00,
   0x00, 0x00, 0x00, 0x00, 0x00, 0x00, 0x00, 0x00};
