/* XPM */
static char * loaderror_xpm[] = {
"16 16 2 1",
" 	c white",
".	c black",
"    .......     ",
"   .........    ",
"  ..      ...   ",
" ..       ....  ",
"..       ... .. ",
"..      ...  .. ",
"..     ...   .. ",
"..    ...    .. ",
"..   ...     .. ",
"..  ...      .. ",
"......       .. ",
" ....       ..  ",
"  ..       ..   ",
"   .........    ",
"    .......     ",
"                "};
