/* XPM */
static char * foo_xpm[] = {
"16 16 2 1",
" 	c white",
".	c black",
"                ",
" .............. ",
"                ",
"  ............  ",
"   ..  ..  ..   ",
"   ..  ..  ..   ",
"   ..  ..  ..   ",
"   ..  ..  ..   ",
"   ..  ..  ..   ",
"   ..  ..  ..   ",
"   ..      ..   ",
"   ..      ..   ",
"   ..      ..   ",
"  ....    ....  ",
" .............. ",
"                "};
